<?xml version="1.0" encoding="UTF-8"?>
<svg id="Layer_1" data-name="Layer 1" xmlns="http://www.w3.org/2000/svg" xmlns:xlink="http://www.w3.org/1999/xlink" viewBox="0 0 80.95 99.75">
  <defs>
    <clipPath id="clippath">
      <rect width="80.95" height="99.75" fill="none"/>
    </clipPath>
  </defs>
  <path d="M40.98,68.83c.65-2.56,2.42-4.64,2.84-4.97,0,0-2.74,3.66-1.95,9.41,0,0,.76-4.71,4.31-9.34,3.55-4.62,6.97-6.79,9.79-10.24,1.57-1.92,2.46-3.76,2.99-5.42.43-1.24.63-2.45.72-3.34-.76.07-1.49.16-2.23.23,0,.03-.01.06-.02.08-.74,2.47-2.16,4.24-4.43,5.28-2.96,3.02-7.38,5.12-9.84,6.7-4.35,2.79-5.06,8.29-5.06,8.29.48-8.44,5.65-9.53,11.31-13.67.12-.09.4-.25.52-.33l-.18.07c-.71,0-2.15-.13-2.82-.29-.62.43-1.22.8-1.78,1.1-2.96,1.61-5.01,4.25-5.01,4.25.8-2.67,2.67-3.8,5.48-5.77-1.05-.43-2.22-1.16-3.03-1.96-1.65.85-5.3,3.07-7.74,5.37-1.94,1.84-5.55,4.45-9.82,6.46,3.35-2.22,9-7.2,10.99-9.09,0,0-7.43,4.29-9.56,5.73,0,0,2.77-3.05,6.19-4.94,0,0-7.56,3.1-11.92,6.07-2.25,1.54-5.7,4.67-7.69,6.8.82-.18,3.93-.8,4.75-.89,5.59-.57,11.71-.14,17.07-6.59.09-.1.18-.21.25-.3-.47,1.59-.67,3.83-.58,6.32.2,5.38,4.38,7.51,6,8.64-.04-.66-.14-1.32.45-3.65h0Z" fill="#ffc516"/>
  <path d="M28.49,63.99h-.11s1.59.84,2.9.84,2.39-.43,2.39-.43c0,0-.22-3.09.08-4.1,0,0-2.5,2.99-5.26,3.68h0Z" fill="#ffc516"/>
  <path d="M41.53,40.88h0s2.69.78,4.31,2.03c0,0-1.76-.36-3.56-.58,1.29,1.93,3.49,3.2,5.99,3.2,1.89,0,3.61-.73,4.89-1.92-.31.22-.6.38-.83.49-.62.3-1.22.4-1.68.43-1.03.33-2.06.19-2.33.14.02,0,.04-.01.06-.02,3.1-.53,5.99-2.91,5.67-6.52-.14-1.54-.61-3.19-1.58-4.23,1.21,1.04,2.04,2.52,2.2,4.22.08.84-.02,1.66-.25,2.42.39-.85.62-1.79.64-2.78.23,1.06.15,1.97-.11,2.75.31-.77.49-1.6.5-2.48.02.1.03.2.05.3v-.02c0-.52-.06-1.03-.16-1.52v-.07c-.41-2.7-2.39-5.26-4.91-6.4-.76-.39-3.05-1.24-5.53-1.46-1.13-.13-2.33-.11-3.81.04-.66.07-1.3.15-1.93.23-3.37.43-6.55.84-9.96-1.07-4.22-2.13-7.35-6.88-7.95-12.11l-.07-.57c-.08-.72-.12-1.48-.16-2.22-.06-.65-.18-1-.19-.92,0,.05,0,.11,0,.16,0,.56-.13,1.11-.22,1.65-.1.65-.23,1.88-.24,1.84-.01-.05-.03-.1-.03-.15-.03-.18-.04-.36-.04-.54,0-.36-.01-.73-.03-1.09-.05-.91-.2-3.58-.27-3.92-.02-.09-.06-.39-.15-.44,0,.31,0,.63-.02.94-.04.82-.22,1.79-.3,2.6-.08.82-.22,1.62-.34,2.43-.03.22-.08.67-.09.6,0-.02,0-.03,0-.05-.04-.5-.17-2.1-.16-3.92v-.37c-.02.07-.03.14-.04.21-.3,1.75-.65,4.18-.68,6.81,0,.08,0,.29,0,.41-.02.82.02,4.21,1.48,7.96,2.22,5.7,6.53,9.48,12.8,11.24,3.11.88,6.6,1.54,9.04,2.28h0Z" fill="#fff"/>
  <path d="M46.46,77.73c-.75-.57-2.92-2.19-4.24-2.92-1.63-.9-3.4-1.9-4.09-2.51,0,0-.01,2.86,1.39,5.04,1.04,1.62,3.89,3.11,5.74,4.22.16-.6.59-2.15,1.21-3.83h0Z" fill="#ffc516"/>
  <path d="M42.99,74.15c1.35.84,2.97,1.85,3.87,2.56.22-.52.45-1.04.7-1.53,1.44-2.84,2.85-3.85,3.41-6.81.56-2.96-.85-5.23-1.92-6.34,0,0-3.22,3.52-4.48,6.39-1.13,2.56-1.52,4.62-1.58,5.72h0Z" fill="#ffc516"/>
  <path d="M36.77,40.78c-.25-.06-.5-.13-.76-.19-.51-.13-1.02-.25-1.54-.37-.57-.13-1.14-.26-1.7-.4-.03.14-.06.28-.08.42-.08.5-.15,1.01-.21,1.52,1.28-.33,2.8-.69,4.26-.95.04,0,.07-.01.1-.02-.02,0-.05-.01-.07-.02h0Z" fill="#ffc516"/>
  <path d="M40.43,22.13c-4.76-2.94-5.94-5.73-6.66-9.72-.12-.64-.27-1.25-.44-1.84.13,1.51.01,2.93.01,2.93-.18-1.46-1.1-4.02-1.1-4.02.37,1.65.46,4.3.46,4.3-.11-.93-.51-2.39-.82-3.41.11.74.2,1.43.27,2,.24,1.97-.23,5.49,1.17,9.18.9,2.39,2.87,4.14,4.04,5.02.98-1.37,2.22-3.14,3.07-4.44h0Z" fill="#fff"/>
  <path d="M69.47,48.37c.25.3.7.95.72,1.17,0,.03,0,.09,0,.17h0s0,.02,0,.06h0c-.03.35-.2,1.96-.57,2.41-.06.09-.12.18-.19.25-.43.4-1.17.78-2.57,1.75-1.55,1.08-2.77,3.27-2.77,3.27,0,0,.44-2.07,1.4-3.26,1.19-1.47,2.73-2.44,3.68-2.95l.43-1.92c-.33-.22-.74-.44-1.14-.51-.83-.15-2.23-.13-3.08-.41,0,0,.01-.02.01-.02,1.02-.12,1.62-.42,3.15-.67,1.52-.25,2.7.2,2.7.2-1.02.05-1.75.45-1.75.45h0ZM74.42,47.55c-1.45.58-4.85-.45-6.97-.61-2.12-.15-3.61.85-3.61.85-.58-1.45.09-3.42.09-3.42-.44,0-2.04.2-2.49.23,0,.03-.17.05-.42.08v.15s-.67,5.14-3.11,8.5c.64.35,2.25.84,2.82,1.35,1.05.96,1.11,2.35,1.06,2.9-.05.55-.13,1.53-.64,3.48,0,0-.12-2.8-.37-3.62-.25-.82-1.19-1.58-2.09-1.86-.41-.12-1.16-.33-1.99-.51-1.61,1.84-3.23,3.11-4.75,4.46.16.25.39.46.71.55.92.24,2.07-.31,2.07-.31,0,0-.73,3.4,1.22,6.3,1.46,2.16,4.27,1.61,4.27,1.61,0,0,.6-4.27,3.27-7.7,2.46-3.16,5.46-4.79,7.55-5.41-.08-.39-.2-1.19-.06-1.58.2-.52.77-1,1.47-1s1.5.37,1.5.37c-.37-.08-1.35-.12-1.85.4-.38.4-.21,1.22-.1,1.57,1.93-.35,3.7-.11,4.04-.03.36.09.7.03.82-.42s.12-1-.12-1.18c-.24-.18-.64-.24-1.03-.55s-.73-1.03-.7-2.09c.03-1.06-.61-2.52-.61-2.52h0Z" fill="#e9b786"/>
  <path d="M65.41,44.42c-.75.5-.57,2-.57,2,0,0,.6-.62,2.07-1,1.47-.37,3.42-.1,3.42-.1-1.12.22-1.75.6-1.75.6,2.1.27,2.47.95,5.27.75,2.8-.2,3.15-2.85,3.15-2.85,0,0-.65.3-2.1.62-1.45.32-4.37-.12-5.24-.22-.87-.1-3.5-.3-4.24.2h0Z" fill="#ffc516"/>
  <path d="M37.64,28.19c.45-.05.9-.11,1.36-.17.64-.08,1.29-.17,1.95-.23,1.56-.16,2.84-.18,4.04-.04,2.37.21,4.63.96,5.71,1.47,2.99,1.27,5.35,4.32,5.77,7.5h0c.02.09.03.18.05.27,0,.03,0,.07.02.1.02.11.03.23.04.34h0c.74-.08,4.65-.53,7.91-.5,2.91.02,5.48.32,6.72.53-1.27-2.84-3.24-6.17-6.22-8.99-6.73-6.38-15.04-9.42-21.99-9.74,0,0-.11,1.25-.86,2.84-.27.57-.61,1.17-1.07,1.79-.65.88-1.96,2.68-3.16,4.5-.04.06-.27.35-.27.35h0Z" fill="#ffc516"/>
  <path d="M46.44,87.38s.7-1.24,1.49-2.63c-.49-.42-1.15-.92-1.97-1.43-.74-.46-2.02-1.1-3.13-1.74,0,.61.07,2.14.93,3.38,1.1,1.59,2.68,2.41,2.68,2.41h0Z" fill="#ffc516"/>
  <path d="M41.89,47.93c-.11-.15-.22-.31-.33-.47l-.23-.2c-.77.16-11.09,1.51-23.58,9.9-4.14,2.78-9.21,7.71-11.72,10.47,1.07-.47,3.38-1.44,5.22-2,1.87-1.92,4.94-5.03,7.75-7,6.51-4.56,17.66-9.28,22.89-10.71h0Z" fill="#ffc516"/>
  <path d="M72.21,61.44c3.22-2.12,6.01-2.83,6.01-2.83,0,0-.11-1.74-1.87-3.4,0,0-2.67-.75-6.01.77s-6.53,4.56-7.91,7.71c-1.37,3.15-1.48,6.47-1.63,8.92-.15,2.45.26,6.1-.7,9.4,0,0,1.58-2.33,2.15-8.92.52-5.98,2-10.09,4.74-12.01,0,0-2.2,3.05-2.95,8.04-.75,4.99-.6,6.94-1.52,11.09l-.23.78s2.2-2.94,3.39-10.61c1.04-6.71,3.01-9.72,5.7-11.29,0,0-3.61,3.92-4.44,9.54,0,0,2.05-5.06,5.27-7.18h0Z" fill="#ffc516"/>
  <path d="M54.31,66.28c-1.01-1.48-1.7-4.44-1.7-4.44,0,0-1.26-.03-2-1.04-.12.13-.25.25-.37.38,0,0,1.13,1.57,1.83,4.53.53,2.25-.88,5.92-.88,5.92,0,0,.73,1.84,1.05,4.08.04-.03.09-.06.13-.08,0,0,3.93-2.08,6.04-2.96.33-.14.75-.29,1.22-.45.04-.88.13-2.09.31-3.22-.41.01-.78.02-1.09.02-2.17,0-3.52-1.26-4.53-2.74h0Z" fill="#e9b786"/>
  <path d="M75.87,68.97c-1.07-.03-5.27-.16-7.89-.16h-.03c-.26.41-.47.85-.7,1.46.73-.14,1.43-.27,2.08-.37,3.56-.54,6.49-.63,6.96-.69.47-.06,1.32-.03,1.64-.28,0,0-.98.08-2.05.05h0Z" fill="#e9b786"/>
  <path d="M44.09,88.92c.2.68.71,1.04,1.21,1.3.32-1.02.74-2.16.74-2.16-.76-.39-1.5-1.04-1.5-1.04-.28.37-.78.79-.45,1.9h0Z" fill="#ffc516"/>
  <path d="M77.12,64.65c-.75-.3-2.02-.22-2.02-.22,0,0,.97-2.37.87-3.67,0,0-5.65,2.44-7.27,6.92,0,0,3.39.09,5.29.31,1.9.23,3.13.23,3.56.26.42.02,1.3.08,1.02-1.47-.27-1.55-.7-1.82-1.45-2.12h0Z" fill="#e9b786"/>
  <path d="M43.65,95.36c-.45.55-.65,1.66-.37,1.99.28.33.67.29.92.02s.32-.71-.02-1.17c-.27-.37-.53-.84-.53-.84h0Z" fill="#ffc516"/>
  <path d="M50.27,73.19c-.24.38-.62.98-.84,1.27-.7.95-2.44,4.73-3.18,7.7.22.14.42.27.59.39.82.57,1.3,1.03,1.57,1.33.35-.63,1.05-1.27,1.33-1.78,1.02-1.85,1.8-4.04,1.55-6.03-.17-1.37-.79-2.46-1.02-2.89h0Z" fill="#ffc516"/>
  <path d="M44.82,93.63c-.59-.4-.97-.85-.97-.85-.79,1.36-.41,1.67.68,2.48.74.55.6,1.27.6,1.27,0,0,1.02-.52.95-1.17-.04-.43-.67-1.33-1.26-1.73h0Z" fill="#ffc516"/>
  <path d="M47.47,87.14c-.63,1.13-1.19,2.63-1.48,3.42.06.03.12.07.17.1.59.4,1.35,1.46,1.35,1.46,0,0,1.62-1.81,2.28-3.85.66-2.05-.13-4.5-.13-4.5,0,0-1.29,1.74-2.19,3.36h0Z" fill="#ffc516"/>
  <path d="M45.36,91.15c-.81-.39-1.23-.93-1.23-.93,0,0-.48.65-.31,1.43.18.77.9,1.11,1.66,1.5s1.06,1.17,1.06,1.17c.54-.38.81-.97.51-1.6-.3-.64-.88-1.18-1.69-1.56h0Z" fill="#ffc516"/>
  <path d="M71.77,38.56c-.9-.17-3.75-.6-7.29-.62-3.22-.02-7.1.38-7.86.47h0c0,4.8-4.12,8.21-7.96,8.27-5.79.09-7.92-4.58-7.97-4.86-.41-.12-.85-.24-1.31-.36-.77.09-1.59.21-2.46.36-1.6.28-3.25.67-4.59,1.02-.06.71-.17,1.85-.17,1.95-.19,4.03.06,3.75.06,3.75,1.17-.46,5.48-1.56,5.48-1.56,1.26-.29,2.76-.61,4.52-.93,1.23,2.49,3.79,4.2,6.76,4.2,3.7,0,6.77-2.66,7.42-6.18,8.09-.88,11.91-.9,16.9-.24-.52-2.78-1.54-5.26-1.54-5.26h0Z" fill="#30006c"/>
  <g clip-path="url(#clippath)">
    <g>
      <path d="M71.22,47.93s-1.17-.45-2.69-.2c-1.53.25-2.12.55-3.15.67,0,0,0,.01-.01.02.85.28,2.25.26,3.08.41.4.07.81.3,1.14.51l-.43,1.92c-.96.51-2.5,1.48-3.68,2.95-.09.11-.18.23-.25.36-.04.05-.07.11-.1.17-.04.07-.09.15-.12.22-.05.09-.09.18-.14.27-.04.09-.09.18-.12.27-.17.38-.3.76-.41,1.08-.01.04-.02.08-.04.11-.08.25-.13.46-.17.6,0,.02-.01.04-.01.06,0,.01,0,.03-.01.04,0,.03-.01.05-.01.07,0,0,0,.01,0,.02.02-.04.13-.23.31-.51.04-.06.08-.13.13-.2.35-.52.87-1.24,1.5-1.85.09-.09.18-.17.27-.25.18-.16.37-.31.56-.45,1.4-.98,2.15-1.35,2.57-1.75.08-.08.14-.17.2-.25.37-.45.54-2.06.57-2.4h0s0-.07,0-.07c0-.06,0-.11,0-.14v-.04c-.02-.22-.47-.88-.72-1.17,0,0,.72-.4,1.75-.45h0ZM71.22,47.93s-1.17-.45-2.69-.2c-1.53.25-2.12.55-3.15.67,0,0,0,.01-.01.02.85.28,2.25.26,3.08.41.4.07.81.3,1.14.51l-.43,1.92c-.96.51-2.5,1.48-3.68,2.95-.09.11-.18.23-.25.36-.04.05-.07.11-.1.17-.04.07-.09.15-.12.22-.05.09-.09.18-.14.27-.04.09-.09.18-.12.27-.17.38-.3.76-.41,1.08-.01.04-.02.08-.04.11-.08.25-.13.46-.17.6,0,.02-.01.04-.01.06,0,.01,0,.03-.01.04,0,.03-.01.05-.01.07,0,0,0,.01,0,.02.02-.04.13-.23.31-.51.04-.06.08-.13.13-.2.35-.52.87-1.24,1.5-1.85.09-.09.18-.17.27-.25.18-.16.37-.31.56-.45,1.4-.98,2.15-1.35,2.57-1.75.08-.08.14-.17.2-.25.37-.45.54-2.06.57-2.4h0s0-.07,0-.07c0-.06,0-.11,0-.14v-.04c-.02-.22-.47-.88-.72-1.17,0,0,.72-.4,1.75-.45h0ZM71.22,47.93s-1.17-.45-2.69-.2c-1.53.25-2.12.55-3.15.67,0,0,0,.01-.01.02.85.28,2.25.26,3.08.41.4.07.81.3,1.14.51l-.43,1.92c-.96.51-2.5,1.48-3.68,2.95-.09.11-.18.23-.25.36-.04.05-.07.11-.1.17-.04.07-.09.15-.12.22-.05.09-.09.18-.14.27-.04.09-.09.18-.12.27-.17.38-.3.76-.41,1.08-.01.04-.02.08-.04.11-.08.25-.13.46-.17.6,0,.02-.01.04-.01.06,0,.01,0,.03-.01.04,0,.03-.01.05-.01.07,0,0,0,.01,0,.02.02-.04.13-.23.31-.51.04-.06.08-.13.13-.2.35-.52.87-1.24,1.5-1.85.09-.09.18-.17.27-.25.18-.16.37-.31.56-.45,1.4-.98,2.15-1.35,2.57-1.75.08-.08.14-.17.2-.25.37-.45.54-2.06.57-2.4h0s0-.07,0-.07c0-.06,0-.11,0-.14v-.04c-.02-.22-.47-.88-.72-1.17,0,0,.72-.4,1.75-.45h0ZM71.22,47.93s-1.17-.45-2.69-.2c-1.53.25-2.12.55-3.15.67,0,0,0,.01-.01.02.85.28,2.25.26,3.08.41.4.07.81.3,1.14.51l-.43,1.92c-.96.51-2.5,1.48-3.68,2.95-.09.11-.18.23-.25.36-.04.05-.07.11-.1.17-.04.07-.09.15-.12.22-.05.09-.09.18-.14.27-.04.09-.09.18-.12.27-.17.38-.3.76-.41,1.08-.01.04-.02.08-.04.11-.08.25-.13.46-.17.6,0,.02-.01.04-.01.06,0,.01,0,.03-.01.04,0,.03-.01.05-.01.07,0,0,0,.01,0,.02.02-.04.13-.23.31-.51.04-.06.08-.13.13-.2.35-.52.87-1.24,1.5-1.85.09-.09.18-.17.27-.25.18-.16.37-.31.56-.45,1.4-.98,2.15-1.35,2.57-1.75.08-.08.14-.17.2-.25.37-.45.54-2.06.57-2.4h0s0-.07,0-.07c0-.06,0-.11,0-.14v-.04c-.02-.22-.47-.88-.72-1.17,0,0,.72-.4,1.75-.45h0ZM68.52,47.73c-1.53.25-2.12.55-3.15.67,0,0,0,.01-.01.02.85.28,2.25.26,3.08.41.4.07.81.3,1.14.51l-.43,1.92c-.96.51-2.5,1.48-3.68,2.95-.09.11-.18.23-.25.36-.04.05-.07.11-.1.17-.04.07-.09.15-.12.22-.05.09-.09.18-.14.27-.04.09-.09.18-.12.27-.17.38-.3.76-.41,1.08-.01.04-.02.08-.04.11-.08.25-.13.46-.17.6,0,.02-.01.04-.01.06,0,.01,0,.03-.01.04,0,.03-.01.05-.01.07,0,0,0,.01,0,.02.02-.04.13-.23.31-.51.04-.06.08-.13.13-.2.35-.52.87-1.24,1.5-1.85.09-.09.18-.17.27-.25.18-.16.37-.31.56-.45,1.4-.98,2.15-1.35,2.57-1.75.08-.08.14-.17.2-.25.37-.45.54-2.06.57-2.4h0s0-.07,0-.07c0-.06,0-.11,0-.14v-.04c-.02-.22-.47-.88-.72-1.17,0,0,.72-.4,1.75-.45,0,0-1.17-.45-2.69-.2h0ZM77.55,68.25c-.43-.02-1.66-.03-3.56-.26-1.9-.22-5.29-.31-5.29-.31,1.62-4.48,7.27-6.92,7.27-6.92.1,1.3-.87,3.67-.87,3.67,0,0,1.27-.07,2.02.23.75.3,1.17.57,1.45,2.12.27,1.55-.6,1.5-1.02,1.47h0ZM76.29,69.21c-.47.07-3.4.16-6.96.7-.64.1-1.35.22-2.07.36.22-.61.44-1.05.7-1.46,0,0,.02,0,.03,0,2.61,0,6.81.14,7.88.17,1.07.03,2.05-.05,2.05-.05-.31.25-1.16.22-1.64.28h0ZM65.68,70.37c-1.19,7.67-3.39,10.61-3.39,10.61l.23-.78c.92-4.14.77-6.09,1.52-11.09.75-4.99,2.95-8.04,2.95-8.04-2.75,1.92-4.23,6.04-4.75,12.01-.55,6.38-2.05,8.77-2.14,8.92.95-3.29.55-6.94.7-9.39.15-2.45.25-5.78,1.63-8.92,1.37-3.15,4.56-6.18,7.91-7.71,3.34-1.52,6.01-.77,6.01-.77,1.76,1.65,1.87,3.39,1.87,3.39,0,0-2.78.71-6.01,2.83-3.22,2.12-5.27,7.18-5.27,7.18.83-5.62,4.44-9.54,4.44-9.54-2.7,1.57-4.66,4.58-5.7,11.29h0ZM59.63,72.23c-.47.16-.89.31-1.22.45-2.11.88-6.04,2.96-6.04,2.96-.04.02-.09.05-.14.08-.32-2.24-1.05-4.08-1.05-4.08,0,0,1.41-3.67.88-5.92-.69-2.96-1.83-4.53-1.83-4.53.12-.14.25-.26.37-.38.74,1.01,2,1.04,2,1.04,0,0,.7,2.96,1.7,4.44,1.01,1.48,2.36,2.74,4.53,2.74.31,0,.69,0,1.09-.02-.18,1.13-.27,2.34-.31,3.22h0ZM49.74,82.11c-.28.51-.98,1.14-1.33,1.77-.27-.3-.76-.76-1.57-1.33-.17-.12-.37-.25-.59-.38.74-2.96,2.48-6.74,3.18-7.7.22-.3.61-.89.84-1.27.23.43.84,1.52,1.01,2.88.25,1.99-.53,4.18-1.55,6.03h0ZM49.79,88.27c-.66,2.05-2.28,3.86-2.28,3.86,0,0-.76-1.06-1.35-1.46-.05-.03-.11-.07-.17-.1.28-.8.85-2.29,1.48-3.42.9-1.62,2.19-3.36,2.19-3.36,0,0,.79,2.45.13,4.5h0ZM46.54,94.32s-.29-.77-1.06-1.17c-.76-.39-1.48-.72-1.66-1.5-.18-.77.3-1.43.3-1.43,0,0,.43.54,1.24.93.81.39,1.39.93,1.69,1.56.3.64.03,1.22-.51,1.6h0ZM45.13,96.53s.14-.72-.61-1.27c-1.09-.81-1.47-1.12-.68-2.48,0,0,.38.45.97.84.59.4,1.22,1.3,1.26,1.73.07.66-.95,1.17-.95,1.17h0ZM44.21,97.37c-.25.28-.64.32-.92-.01-.28-.33-.08-1.45.37-1.99,0,0,.25.46.53.83.34.46.27.9.02,1.17h0ZM46.04,88.06s-.41,1.13-.74,2.16c-.5-.26-1.01-.61-1.21-1.29-.33-1.11.17-1.54.45-1.9,0,0,.74.65,1.5,1.04h0ZM42.83,81.59c1.11.64,2.39,1.27,3.13,1.74.82.51,1.48,1.01,1.97,1.43-.78,1.39-1.49,2.63-1.49,2.63,0,0-1.57-.82-2.68-2.41-.86-1.25-.94-2.78-.93-3.38h0ZM39.51,77.34c-1.4-2.18-1.38-5.04-1.38-5.04.69.61,2.47,1.6,4.09,2.51,1.33.74,3.49,2.35,4.24,2.92-.62,1.67-1.05,3.22-1.21,3.83-1.85-1.11-4.7-2.59-5.74-4.22h0ZM50.97,68.38c-.56,2.96-1.97,3.97-3.41,6.8-.25.49-.48,1.01-.7,1.53-.9-.71-2.52-1.73-3.87-2.56.06-1.1.45-3.16,1.58-5.72,1.26-2.87,4.48-6.39,4.48-6.39,1.07,1.11,2.48,3.38,1.92,6.34h0ZM34.53,63.84c-.09-2.49.11-4.72.57-6.32-.08.09-.17.2-.25.3-5.36,6.45-11.47,6.01-17.07,6.59-.83.08-3.93.71-4.75.89,1.99-2.13,5.44-5.27,7.69-6.8,4.22-2.88,11.44-5.88,11.89-6.06-3.41,1.89-6.16,4.93-6.16,4.93,2.06-1.4,9.1-5.47,9.54-5.72-2,1.91-7.63,6.86-10.97,9.08,4.26-2.01,7.88-4.62,9.82-6.46,2.43-2.3,6.08-4.51,7.74-5.37.81.8,1.99,1.53,3.03,1.96-2.8,1.98-4.67,3.1-5.48,5.77,0,0,2.05-2.64,5.01-4.25.56-.3,1.16-.67,1.78-1.1.66.16,2.11.29,2.82.29l.17-.08c-.11.09-.4.25-.51.33-5.64,4.14-10.81,5.23-11.3,13.64.07-.47.92-5.59,5.06-8.25,2.46-1.58,6.88-3.68,9.84-6.69,2.27-1.04,3.69-2.81,4.43-5.28,0-.02.01-.05.02-.08.73-.07,1.46-.17,2.23-.23-.09.89-.28,2.1-.72,3.34-.53,1.66-1.42,3.5-2.99,5.42-2.83,3.45-6.24,5.62-9.79,10.24-3.56,4.62-4.31,9.34-4.31,9.34-.77-5.59,1.8-9.21,1.94-9.4-.43.34-2.18,2.42-2.83,4.97-.59,2.33-.49,2.99-.45,3.65-1.62-1.13-5.8-3.25-5.99-8.64h0ZM33.68,64.41s-1.08.43-2.39.43-2.9-.83-2.9-.83h.11c2.76-.7,5.26-3.69,5.26-3.69-.29,1.01-.07,4.09-.07,4.09h0ZM11.26,65.64c-1.83.56-4.14,1.54-5.22,2,2.5-2.75,7.58-7.69,11.71-10.47,12.49-8.39,22.81-9.75,23.59-9.9l.23.2c.1.16.22.31.33.47-5.23,1.43-16.37,6.14-22.89,10.71-2.81,1.97-5.88,5.08-7.75,7h0ZM19.7,27.37c-1.46-3.75-1.49-7.14-1.48-7.96,0-.12,0-.34,0-.41.04-2.63.39-5.06.68-6.81.01-.07.02-.14.04-.21v.37c0,1.82.12,3.42.17,3.92,0,.02,0,.03,0,.05,0,.07.06-.37.09-.6.12-.81.26-1.62.34-2.43.08-.81.27-1.78.3-2.6.01-.31.03-.63.02-.94.09.05.13.36.15.44.07.34.22,3.01.27,3.92.02.36.03.73.03,1.09,0,.18,0,.36.04.54,0,.05.02.1.03.15.01,0,.14-1.2.24-1.84.09-.55.22-1.1.22-1.65,0-.05-.01-.11,0-.16.01-.08.14.27.19.92.04.74.07,1.5.16,2.22l.07.57c.59,5.22,3.72,9.97,7.95,12.11,3.41,1.91,6.59,1.51,9.96,1.07.63-.08,1.27-.16,1.93-.23,1.48-.16,2.68-.17,3.81-.04,2.48.22,4.78,1.07,5.53,1.46,2.52,1.13,4.5,3.7,4.91,6.4v.07c.11.49.16,1,.16,1.52v.02c-.02-.1-.03-.19-.05-.3-.01.88-.19,1.71-.5,2.48.25-.78.33-1.69.1-2.75-.01,1-.24,1.93-.64,2.78.23-.76.33-1.58.25-2.42-.16-1.7-.98-3.18-2.2-4.22.97,1.04,1.45,2.69,1.58,4.24.33,3.61-2.57,5.98-5.67,6.52-.02,0-.04.01-.07.02.27.04,1.3.19,2.33-.14.46-.04,1.07-.14,1.68-.44.23-.11.51-.27.83-.49-1.29,1.19-3.01,1.92-4.9,1.92-2.5,0-4.69-1.27-5.99-3.2,1.8.22,3.56.58,3.56.58-1.62-1.25-4.32-2.04-4.32-2.04h0c-2.43-.72-5.93-1.38-9.04-2.27-6.27-1.76-10.58-5.54-12.8-11.24h0ZM33.33,21.55c-1.4-3.69-.93-7.21-1.17-9.18-.07-.57-.16-1.26-.27-2,.31,1.02.72,2.48.82,3.41,0,0-.09-2.65-.45-4.29.05.15.92,2.6,1.09,4.01,0,0,.12-1.42-.01-2.93.17.58.33,1.19.44,1.84.72,3.99,1.9,6.79,6.66,9.72-.85,1.3-2.09,3.06-3.07,4.44-1.17-.88-3.14-2.63-4.04-5.02h0ZM42.14,21.56c.75-1.59.86-2.84.86-2.84,6.94.32,15.26,3.36,21.98,9.74,2.98,2.82,4.95,6.15,6.22,8.99-1.24-.2-3.82-.51-6.72-.53-3.26-.02-7.16.42-7.91.51h0c-.01-.12-.03-.23-.04-.35,0-.04-.01-.07-.01-.1-.01-.09-.03-.18-.05-.27h0c-.41-3.19-2.78-6.24-5.77-7.51-1.08-.5-3.34-1.25-5.71-1.47-1.2-.14-2.48-.12-4.04.04-.67.07-1.32.16-1.95.23-.46.06-.92.12-1.37.17,0,0,.23-.29.27-.35,1.2-1.82,2.51-3.62,3.17-4.5.45-.61.8-1.22,1.07-1.78h0ZM32.49,41.77c.06-.51.12-1.02.2-1.52.03-.14.06-.28.09-.42.56.14,1.13.27,1.7.4.51.12,1.03.24,1.54.37.25.06.51.12.76.19.02,0,.05.01.07.02-.04,0-.07.01-.1.02-1.46.25-2.97.61-4.25.94h0ZM73.31,43.82c-4.99-.66-8.82-.64-16.9.24-.64,3.51-3.72,6.18-7.42,6.18-2.96,0-5.52-1.71-6.76-4.2-1.75.33-3.25.64-4.52.93,0,0-4.31,1.11-5.48,1.56,0,0-.25.28-.07-3.75,0-.1.11-1.24.17-1.94,1.34-.35,2.99-.74,4.59-1.03.86-.15,1.69-.27,2.46-.36.46.12.9.24,1.31.36.04.28,2.18,4.95,7.97,4.86,3.83-.06,7.95-3.47,7.96-8.26h0c.76-.1,4.64-.5,7.86-.48,3.54.02,6.39.45,7.29.62,0,0,1.01,2.48,1.54,5.26h0ZM74.9,44.46c1.45-.33,2.1-.62,2.1-.62,0,0-.35,2.65-3.15,2.84-2.8.2-3.17-.47-5.27-.75,0,0,.63-.38,1.75-.6,0,0-1.95-.28-3.42.1-1.47.38-2.07,1-2.07,1,0,0-.17-1.5.57-1.99.75-.5,3.37-.3,4.24-.2.88.1,3.8.55,5.25.22h0ZM75.73,52.16c.39.3.79.37,1.03.55.24.18.24.73.12,1.18-.12.45-.46.51-.82.43-.34-.09-2.11-.33-4.04.03-.1-.36-.28-1.17.1-1.57.5-.52,1.46-.47,1.84-.4-.09-.04-.83-.37-1.49-.37-.7,0-1.27.48-1.47,1-.15.39-.02,1.19.06,1.58-2.09.62-5.09,2.25-7.55,5.41-2.67,3.42-3.27,7.7-3.27,7.7,0,0-2.82.55-4.27-1.61-1.95-2.9-1.22-6.3-1.22-6.3,0,0-1.16.55-2.07.31-.32-.08-.55-.29-.71-.55,1.53-1.35,3.14-2.62,4.75-4.46.83.18,1.58.38,1.99.51.9.27,1.84,1.03,2.09,1.86.25.82.37,3.62.37,3.62.51-1.95.59-2.93.63-3.48.05-.55,0-1.94-1.06-2.9-.57-.52-2.18-1-2.82-1.35,2.44-3.36,3.11-8.5,3.11-8.5,0-.05,0-.1,0-.15.25-.03.41-.05.42-.08.45-.02,2.04-.22,2.49-.23,0,0-.67,1.97-.09,3.42,0,0,1.48-1,3.61-.85,2.12.15,5.52,1.18,6.97.61,0,0,.64,1.46.61,2.52-.03,1.06.3,1.79.7,2.09h0ZM79.45,65.81c-.14-.85-.99-1.6-1.41-1.7s-1.51-.38-1.51-.38c.8-2.27.8-3.68.8-3.68.71-.38,2.12-.94,2.12-.94-.47-2.5-2.17-4.44-2.17-4.44.14-.52.47-1.41.47-1.75s-.62-.9-1.28-1.32c-.66-.43-.75-1.18-.75-2.08s-.38-2.03-.52-2.08c-.14-.04,1.68-.62,2.25-2.23.57-1.6.58-2.91.58-2.91-.75,1.1-3.71,1.55-3.71,1.55-.23-2.5-2.24-10.58-10.37-17.9-8.12-7.32-21.96-8.64-21.96-8.64.02.41-.03.89-.15,1.43-.11.69-.31,1.5-.67,2.16-.02.04-.05.09-.08.13-1.91-1.04-3.91-2.43-4.83-4.05-1.78-3.15-1.56-5.85-2.5-8.08-1.55-3.64-3.78-5.61-4.44-6.19-.38-.33-.51-.44-.7-.28-.19.16-.07.38.09.62.15.22,1.54,2.9,2.06,6.54.52,3.64-.17,9.37,1.53,13.06,1.06,2.29,2.81,4.11,3.98,5.15.04.04.08.07.12.11l.38.38c-2.43.23-4.69.14-7.09-1.21-3.86-1.94-6.82-6.46-7.36-11.25l-.07-.57c-.15-1.31-.09-2.62-.15-3.93-.05-1.19-.18-2.38-.39-3.56-.09-.52-.2-1.03-.32-1.54,0,0,0-.01,0-.02-.05-.31-.14-.62-.23-.92-.06-.2-.12-.4-.19-.61-.15-.45-.35-.88-.6-1.28-.3-.49-.64-.97-1.03-1.39-.23-.25-.48-.49-.76-.69,0,0-.26-.16-.44-.07,0,0-.23.16.01.67,0,0,.06.1.14.27.04.1.09.22.13.36.04.12.07.26.09.41.19,1.04.33,3.27-.49,7.54h0c-.07.63-.15,1.25-.26,1.87-.34,1.99-.67,4.26-.72,6.61,0,.1.01.41.01.47-.02,2.09.38,15.81,14.56,20.13-.07.29-.13.58-.17.85-.96,6.05-.61,8.6-.61,8.6,0,0,0,.02,0,.06-2.9,1.09-6.18,2.57-9.64,4.54-3.87,2.12-8.07,5.01-12.18,8.94-.77.74-1.49,1.47-2.18,2.2-.17.17-.33.35-.5.53,0,.01-.02.02-.03.03-2.17,2.33-3.8,4.49-4.99,6.24,6.41-4.63,16.42-6.01,19.48-6.19,3.21-.19,6.46-.74,6.46-.74,0,0,1.27.68,2.78,1.01,1.72.38,3.52-.17,3.52-.17.65,3.33,2.98,5.46,3.6,5.95-.16,1,0,4.3,1.13,6.13,1.21,1.98,3.21,3.31,3.21,3.31,0,0-.14,1.79.33,3.07s1.56,2.44,1.56,2.44c0,0-.5.84-.56,1.89-.07,1.05.56,1.64.56,1.64,0,0-.57.73-.67,1.3-.09.57.26,1.43.26,1.43,0,0-.35.63-.45,1.11-.1.49.19,1.09.19,1.09-.23.45-.92,2.58.09,3.43,1.01.85,2.27-.74,2.27-.74.39-.11,1.12-.59,1.46-1.13.43-.66.43-1.28.43-1.28,0,0,.54-.35,1.01-1.25.39-.73.33-1.21.33-1.21,0,0,2.2-2.31,2.65-5.19.39-2.46-.19-4.72-.19-4.72,0,0,1.65-2.51,1.57-5.38,1.12-.78,3.83-2.54,7.21-3.86.1,1.94.4,3.61-.2,6.73-.76,3.87-4.21,6.71-4.21,6.71,4.82-.52,8.03-4.77,9.3-7.84,1.04-2.5,1.99-6.04,2.43-7.65,4.7-.91,8.99-1.15,10.42-1.37,1.89-.28,2.36-.7,2.41-1.41.05-.71-.14-1.99-.28-2.84h0ZM71.22,47.93s-1.17-.45-2.69-.2c-1.53.25-2.12.55-3.15.67,0,0,0,.01-.01.02.85.28,2.25.26,3.08.41.4.07.81.3,1.14.51l-.43,1.92c-.96.51-2.5,1.48-3.68,2.95-.09.11-.18.23-.25.36-.04.05-.07.11-.1.17-.04.07-.09.15-.12.22-.05.09-.09.18-.14.27-.04.09-.09.18-.12.27-.17.38-.3.76-.41,1.08-.01.04-.02.08-.04.11-.08.25-.13.46-.17.6,0,.02-.01.04-.01.06,0,.01,0,.03-.01.04,0,.03-.01.05-.01.07,0,0,0,.01,0,.02.02-.04.13-.23.31-.51.04-.06.08-.13.13-.2.35-.52.87-1.24,1.5-1.85.09-.09.18-.17.27-.25.18-.16.37-.31.56-.45,1.4-.98,2.15-1.35,2.57-1.75.08-.08.14-.17.2-.25.37-.45.54-2.06.57-2.4h0s0-.07,0-.07c0-.06,0-.11,0-.14v-.04c-.02-.22-.47-.88-.72-1.17,0,0,.72-.4,1.75-.45h0ZM71.22,47.93s-1.17-.45-2.69-.2c-1.53.25-2.12.55-3.15.67,0,0,0,.01-.01.02.85.28,2.25.26,3.08.41.4.07.81.3,1.14.51l-.43,1.92c-.96.51-2.5,1.48-3.68,2.95-.09.11-.18.23-.25.36-.04.05-.07.11-.1.17-.04.07-.09.15-.12.22-.05.09-.09.18-.14.27-.04.09-.09.18-.12.27-.17.38-.3.76-.41,1.08-.01.04-.02.08-.04.11-.08.25-.13.46-.17.6,0,.02-.01.04-.01.06,0,.01,0,.03-.01.04,0,.03-.01.05-.01.07,0,0,0,.01,0,.02.02-.04.13-.23.31-.51.04-.06.08-.13.13-.2.35-.52.87-1.24,1.5-1.85.09-.09.18-.17.27-.25.18-.16.37-.31.56-.45,1.4-.98,2.15-1.35,2.57-1.75.08-.08.14-.17.2-.25.37-.45.54-2.06.57-2.4h0s0-.07,0-.07c0-.06,0-.11,0-.14v-.04c-.02-.22-.47-.88-.72-1.17,0,0,.72-.4,1.75-.45h0ZM71.22,47.93s-1.17-.45-2.69-.2c-1.53.25-2.12.55-3.15.67,0,0,0,.01-.01.02.85.28,2.25.26,3.08.41.4.07.81.3,1.14.51l-.43,1.92c-.96.51-2.5,1.48-3.68,2.95-.09.11-.18.23-.25.36-.04.05-.07.11-.1.17-.04.07-.09.15-.12.22-.05.09-.09.18-.14.27-.04.09-.09.18-.12.27-.17.38-.3.76-.41,1.08-.01.04-.02.08-.04.11-.08.25-.13.46-.17.6,0,.02-.01.04-.01.06,0,.01,0,.03-.01.04,0,.03-.01.05-.01.07,0,0,0,.01,0,.02.02-.04.13-.23.31-.51.04-.06.08-.13.13-.2.35-.52.87-1.24,1.5-1.85.09-.09.18-.17.27-.25.18-.16.37-.31.56-.45,1.4-.98,2.15-1.35,2.57-1.75.08-.08.14-.17.2-.25.37-.45.54-2.06.57-2.4h0s0-.07,0-.07c0-.06,0-.11,0-.14v-.04c-.02-.22-.47-.88-.72-1.17,0,0,.72-.4,1.75-.45h0ZM71.22,47.93s-1.17-.45-2.69-.2c-1.53.25-2.12.55-3.15.67,0,0,0,.01-.01.02.85.28,2.25.26,3.08.41.4.07.81.3,1.14.51l-.43,1.92c-.96.51-2.5,1.48-3.68,2.95-.09.11-.18.23-.25.36-.04.05-.07.11-.1.17-.04.07-.09.15-.12.22-.05.09-.09.18-.14.27-.04.09-.09.18-.12.27-.17.38-.3.76-.41,1.08-.01.04-.02.08-.04.11-.08.25-.13.46-.17.6,0,.02-.01.04-.01.06,0,.01,0,.03-.01.04,0,.03-.01.05-.01.07,0,0,0,.01,0,.02.02-.04.13-.23.31-.51.04-.06.08-.13.13-.2.35-.52.87-1.24,1.5-1.85.09-.09.18-.17.27-.25.18-.16.37-.31.56-.45,1.4-.98,2.15-1.35,2.57-1.75.08-.08.14-.17.2-.25.37-.45.54-2.06.57-2.4h0s0-.07,0-.07c0-.06,0-.11,0-.14v-.04c-.02-.22-.47-.88-.72-1.17,0,0,.72-.4,1.75-.45h0ZM71.22,47.93s-1.17-.45-2.69-.2c-1.53.25-2.12.55-3.15.67,0,0,0,.01-.01.02.85.28,2.25.26,3.08.41.4.07.81.3,1.14.51l-.43,1.92c-.96.51-2.5,1.48-3.68,2.95-.09.11-.18.23-.25.36-.04.05-.07.11-.1.17-.04.07-.09.15-.12.22-.05.09-.09.18-.14.27-.04.09-.09.18-.12.27-.17.38-.3.76-.41,1.08-.01.04-.02.08-.04.11-.08.25-.13.46-.17.6,0,.02-.01.04-.01.06,0,.01,0,.03-.01.04,0,.03-.01.05-.01.07,0,0,0,.01,0,.02.02-.04.13-.23.31-.51.04-.06.08-.13.13-.2.35-.52.87-1.24,1.5-1.85.09-.09.18-.17.27-.25.18-.16.37-.31.56-.45,1.4-.98,2.15-1.35,2.57-1.75.08-.08.14-.17.2-.25.37-.45.54-2.06.57-2.4h0s0-.07,0-.07c0-.06,0-.11,0-.14v-.04c-.02-.22-.47-.88-.72-1.17,0,0,.72-.4,1.75-.45h0ZM71.22,47.93s-1.17-.45-2.69-.2c-1.53.25-2.12.55-3.15.67,0,0,0,.01-.01.02.85.28,2.25.26,3.08.41.4.07.81.3,1.14.51l-.43,1.92c-.96.51-2.5,1.48-3.68,2.95-.09.11-.18.23-.25.36-.04.05-.07.11-.1.17-.04.07-.09.15-.12.22-.05.09-.09.18-.14.27-.04.09-.09.18-.12.27-.17.38-.3.76-.41,1.08-.01.04-.02.08-.04.11-.08.25-.13.46-.17.6,0,.02-.01.04-.01.06,0,.01,0,.03-.01.04,0,.03-.01.05-.01.07,0,0,0,.01,0,.02.02-.04.13-.23.31-.51.04-.06.08-.13.13-.2.35-.52.87-1.24,1.5-1.85.09-.09.18-.17.27-.25.18-.16.37-.31.56-.45,1.4-.98,2.15-1.35,2.57-1.75.08-.08.14-.17.2-.25.37-.45.54-2.06.57-2.4h0s0-.07,0-.07c0-.06,0-.11,0-.14v-.04c-.02-.22-.47-.88-.72-1.17,0,0,.72-.4,1.75-.45h0Z" fill="#070606"/>
      <path d="M79.73,68.64c-.04.71-.52,1.13-2.41,1.41-1.43.22-5.72.46-10.42,1.37-.44,1.6-1.39,5.15-2.43,7.65-1.27,3.07-4.49,7.32-9.3,7.84,0,0,3.45-2.83,4.21-6.71.61-3.11.3-4.79.2-6.73-3.38,1.31-6.09,3.07-7.21,3.86.08,2.87-1.57,5.38-1.57,5.38,0,0,.58,2.27.19,4.72-.46,2.88-2.65,5.19-2.65,5.19,0,0,.06.48-.33,1.21-.47.9-1.01,1.25-1.01,1.25,0,0,0,.62-.43,1.28-.35.54-1.08,1.02-1.46,1.13,0,0-1.26,1.59-2.27.74-1.01-.85-.33-2.98-.09-3.43,0,0-.29-.6-.19-1.09.1-.48.45-1.11.45-1.11,0,0-.35-.86-.26-1.43.1-.57.67-1.3.67-1.3,0,0-.63-.59-.56-1.64s.56-1.89.56-1.89c0,0-1.09-1.17-1.56-2.44-.47-1.28-.33-3.07-.33-3.07,0,0-2-1.33-3.21-3.31-1.12-1.83-1.29-5.13-1.13-6.13-.61-.48-2.95-2.62-3.6-5.95,0,0-1.8.55-3.52.17-1.51-.33-2.78-1.01-2.78-1.01,0,0-3.25.55-6.46.74-3.06.18-13.07,1.57-19.48,6.19,1.19-1.75,2.82-3.9,4.99-6.24.01-.01.02-.02.03-.03.17-.18.33-.35.5-.53.68-.73,1.41-1.46,2.18-2.2,4.11-3.93,8.31-6.82,12.18-8.94,3.46-1.98,6.74-3.45,9.64-4.54,0-.04,0-.06,0-.06,0,0-.35-2.55.61-8.6.04-.27.11-.56.17-.85-14.18-4.32-14.58-18.03-14.56-20.13,0-.06-.01-.37-.01-.47.06-2.35.38-4.62.72-6.61.11-.62.19-1.23.26-1.85h0c.82-4.28.68-6.51.49-7.55-.02-.15-.06-.28-.09-.41-.04-.14-.09-.26-.13-.36-.07-.17-.14-.27-.14-.27-.25-.51-.01-.67-.01-.67.18-.09.44.07.44.07.28.2.53.44.76.69.39.43.73.9,1.03,1.39.25.41.45.84.6,1.28.07.2.13.41.19.61.09.3.18.61.23.92,0,0,0,.01,0,.02.12.51.23,1.02.32,1.54.21,1.17.34,2.37.39,3.56.06,1.31,0,2.62.15,3.93l.07.57c.54,4.78,3.5,9.3,7.36,11.25,2.4,1.35,4.66,1.43,7.09,1.21l-.38-.38s-.08-.07-.12-.11c-1.17-1.04-2.92-2.86-3.98-5.15-1.7-3.68-1.01-9.42-1.53-13.06-.52-3.64-1.91-6.32-2.06-6.54-.16-.23-.29-.46-.09-.62.2-.16.33-.05.7.28.66.58,2.89,2.55,4.44,6.19.94,2.22.72,4.93,2.5,8.08.92,1.62,2.93,3.01,4.83,4.05.03-.04.06-.09.08-.13.35-.66.55-1.47.66-2.16.12-.53.17-1.02.15-1.43,0,0,13.84,1.33,21.96,8.64,8.12,7.32,10.13,15.39,10.37,17.9,0,0,2.95-.45,3.71-1.55,0,0-.01,1.3-.58,2.91-.57,1.61-2.39,2.19-2.25,2.23.14.05.52,1.18.52,2.08s.09,1.65.75,2.08c.66.43,1.28.99,1.28,1.32s-.33,1.23-.47,1.75c0,0,1.7,1.94,2.17,4.44,0,0-1.41.57-2.12.94,0,0,0,1.42-.8,3.68,0,0,1.09.28,1.51.38s1.28.85,1.41,1.7c.14.85.33,2.13.28,2.84h0ZM80.64,65.64c-.22-1.32-1.41-2.47-2.34-2.68-.06-.01-.15-.03-.25-.06.24-.87.36-1.57.42-2.05.54-.25,1.16-.5,1.43-.61l.92-.37-.18-.97c-.38-2-1.43-3.65-2.02-4.47.22-.68.34-1.12.34-1.5,0-.77-.62-1.55-1.83-2.33-.1-.06-.21-.24-.21-1.07,0-.01-.01-.8-.22-1.59.66-.45,1.48-1.18,1.88-2.32.41-1.15.56-2.17.62-2.76.03-.32-.01-1.09-.01-1.09l-.12-1.49s-.75.59-1.16.91c-.11.08-.2.15-.24.17-.06.04-.12.09-.19.12-.3.18-.64.33-.79.41-.33.18-.82.36-1.36.51-.78-4.04-3.64-11.11-10.57-17.35-8.33-7.51-22.08-8.9-22.66-8.95l-1.29-.12s-.03,1.93-.15,2.48v.06c-.06.27-.11.52-.17.75-1.57-.98-2.66-1.97-3.19-2.91-.98-1.73-1.3-3.32-1.6-4.85-.22-1.09-.42-2.12-.84-3.11-1.11-2.62-2.72-4.85-4.76-6.63-.37-.32-.75-.65-1.33-.65-.23,0-.58.06-.93.34-.25.2-1,.96-.16,2.19.01.02,1.37,2.51,1.88,6.07.17,1.17.2,2.62.24,4.15.08,3.09.17,6.6,1.39,9.25.54,1.17,1.23,2.21,1.96,3.12.07.09.35.38.4.44.12.15.25.29.38.43-1.34-.12-2.49-.47-3.63-1.11l-.05-.03c-3.51-1.77-6.21-5.91-6.71-10.31l-.07-.57c-.09-.78-.1-1.57-.11-2.4,0-.47-.01-.96-.03-1.45-.06-1.23-.19-2.48-.41-3.71-.09-.52-.2-1.04-.32-1.55v-.04c-.08-.38-.18-.73-.27-1.02-.06-.22-.13-.43-.2-.65-.18-.54-.42-1.06-.72-1.54-.39-.64-.77-1.14-1.17-1.58-.32-.35-.63-.63-.95-.85l-.05-.03c-.13-.09-.5-.29-.95-.29-.24,0-.47.06-.68.17l-.14.08c-.53.37-.85,1.19-.37,2.17l.04.08s.04.07.07.14c.03.07.06.15.08.23.02.08.04.16.06.28.16.85.31,2.89-.47,6.98l-.04.21c-.09.73-.16,1.28-.25,1.79-.33,1.96-.68,4.29-.74,6.79,0,.08,0,.23,0,.37v.12c-.01,1.65.24,15.98,14.38,20.95h.01s-.04.02-.04.02c-.64,4.12-.69,6.66-.65,7.9-3.07,1.2-6.09,2.65-8.97,4.3-4.51,2.47-8.69,5.54-12.44,9.13-.76.73-1.48,1.46-2.22,2.23-.17.18-.34.36-.49.52l-.05.05c-1.85,2-3.53,4.08-4.98,6.19-.04.07-.18.28-.23.4-.17.38-.34,1.11,0,1.49.21.23.62.43,1.39.1.04-.01.19-.07.24-.1.15-.08.37-.22.44-.28,4.68-3.58,15.44-5.56,18.58-5.74,2.63-.16,5.24-.54,6.21-.69.53.25,1.55.68,2.71.94.49.11,1.02.16,1.58.16.48,0,.94-.04,1.33-.1.8,2.54,2.4,4.27,3.23,5.05-.05,1.53.21,4.4,1.35,6.26.93,1.53,2.27,2.69,3.01,3.27,0,.73.06,1.9.43,2.89.33.89.88,1.69,1.28,2.22-.16.43-.32.99-.36,1.62-.04.71.12,1.29.33,1.72-.18.33-.35.72-.41,1.11-.09.54.02,1.12.15,1.55-.12.27-.25.62-.33.96-.1.48-.02.96.08,1.31-.37,1.08-.77,3.22.6,4.38.41.35.91.53,1.44.53,1.06,0,1.91-.75,2.32-1.19.61-.29,1.35-.85,1.76-1.49.31-.49.47-.96.54-1.31.28-.28.63-.7.95-1.3.27-.51.39-.95.44-1.28.6-.72,1.92-2.47,2.5-4.66l.14-.61c.01-.07.03-.15.04-.23.31-1.99.06-3.84-.1-4.7.47-.84,1.38-2.74,1.49-4.95,1.01-.67,2.78-1.76,4.94-2.74.08,1.32.11,2.68-.29,4.74-.49,2.52-2.33,4.6-3.25,5.51-.32.31-1.11,1.21-1.11,1.21,0,0-.3.25-.25.78,0,.03.03.12.05.19.01.02.07.1.09.12.44.43,1.65.27,1.65.27,5.2-.56,8.72-4.93,10.22-8.53.93-2.25,1.78-5.25,2.28-7.08,3.01-.55,5.8-.82,7.69-1.01.84-.08,1.51-.15,1.95-.22,1.15-.17,3.3-.49,3.43-2.52.04-.65-.05-1.64-.3-3.11h0Z" fill="#fff"/>
    </g>
  </g>
</svg>