<?xml version="1.0" encoding="UTF-8"?>
<svg id="Layer_1" data-name="Layer 1" xmlns="http://www.w3.org/2000/svg" viewBox="0 0 99.33 89.68">
  <g id="crown">
    <g id="shine">
      <path id="left-dot-shine" d="M6.6,46.95c-2.19.19-2.46.8-2.3,2.27.02.2.51.76.51.77.8,1.55.96,1.94,3.32,2.96.28.12,1.1.45,1.64.35.41-.08.92-.43,1.25-.7.06-.05.12-.1.18-.15.27-.23.41-.57.35-.92-.06-.4-.13-.88-.26-1.1-2.32-3.77-2.53-3.68-4.68-3.48Z" fill="#30368b"/>
      <path id="mid-dot-shine" d="M36.54,14.64c2.09,2.82,1.25,5.44-1.16,7.67l-.17-.09c-.21-.43.94-3.23.81-4.68-.58-2.72-1.82-2.4-3.82-4.26-.12-.85.24-.74.43-.6,1.51.24,2.94.72,3.91,1.97Z" fill="#30368b"/>
      <path id="right-dot-shine" d="M78.45,11.1c-.31-.01-.73-.45-.99-.63.44-2.22.96-5.59-1.97-6.55-.44-.14-1.41-.17-1.35-.8,5.42-1.1,7.27,5,4.31,7.98Z" fill="#30368b"/>
    </g>
    <path id="outline" d="M76.82.07c-3.1-.44-7.75,1.34-8.65,5.52-.86,3.99.86,6.62,4.81,8.67.67.35,1.19,1.25,1.18,2-.08,4.94-2.27,17.86-4.08,19.9-2.06,2.33-10.44-2.77-12.51-3.85-6.25-3.25-11.35-5.56-16.71-9.9,0,0,0,0-.01-.01h0c-.75-.82-1.14-1.93-1.01-3.04.49-3.98-1.18-7.68-4.42-8.73s-5.51-.28-7.98,1.16c-1.16.68-2.92,2.64-3.39,4.38-.65,2.4-.6,5.47,2.72,8.78,2.87,2.86,7.02,1.07,7.24,1.54,1.71,3.62,2.04,8.28,2.86,12.18.72,3.47,4.37,16,2.62,18.16-.82,1.01-2.61,1.77-4.08,1.71-6.77-.29-6.92-.8-10.09-1.42-4.42-.87-6.32-2.16-10.47-3.78-.48-.19-.78-.67-.77-1.19.04-2.19-1.32-4.19-2.39-5.24-4.3-4.22-8.99-1.75-11.01,2.07-1.24,2.35-1.04,6.62,2.64,8.73,2.43,1.4,3.74.99,6.56.07.67-.22,1.68-.04,2.22.41,6.83,5.63,12.88,11.95,18.05,19.15l3.72,5.17c2.63,3.6,1.57,2.53,4.8,5.42.28.25,1.07.83,1.41,1.02,4.21,2.3,13.46-1.32,18.31-3.83,5.7-2.96,10.46-5.91,15.93-9.1,5.08-3.22,23.52-16.07,24.9-22.28.75-3.35-2.47-6.18-4.52-8.37-6.71-7.19-11.9-19.1-14.53-28.4-1.24-4.39-.45-3.39,1.3-6.27,2.06-3.4.36-9.92-4.64-10.64ZM28.08,22.44c-3.03-3.38-1.05-10.12,4.47-9.79.05,0,.1,0,.16.02,1.48.24,2.88.73,3.84,1.96,2.09,2.82,1.25,5.44-1.16,7.67-2.01,1.98-5.31,2.37-7.3.14ZM4.95,55.19c-2.53-2.65-3.85-3.8-.11-7.14.05-.04.98-.49,1.04-.5,1.58-.21,1.88-.43,3.65,1.04.97.8,1.19,1.33,1.26,2.99,0,.04,0,.41-.58,1.59-.09.18-1.51,1.16-2.19,1.58-1.52.95-2.59.94-3.07.44ZM72.42,74.67c-4.72,2.95-9.47,5.68-14.42,8.22-3.85,1.99-11.83,6.56-15.73,4.4-1.36-.76-1.04-2.88-.72-4.46,1.29-6.44,15.61-17.56,21.28-21.38,7.27-4.91,19.44-11.5,28.59-11.55,1.04,0,1.59-.01,2.99.5,7.27,2.66-16.25,20.68-22,24.28ZM88.01,40.01c1.37,2.27,3.03,4.36,4.4,6.64-.23-.04-.47-.09-.71-.14-.91-.82-1.56-2.05-2.25-3.07l-6.02-8.89c-.62-.94-2.96-5.64-4.16-4.84-.79.53,1.02,2.93,1.34,3.44,2.41,3.88,5.46,8.41,8.26,12.19.43.58.13,1.41-.57,1.59-1.98.51-3.93,1.31-5.8,2.06-8.41,3.34-15.68,7.18-23.03,12.39-.52.36-1.03.72-1.53,1.11-5.19,3.85-14.65,11.33-17.48,17.26-.39.81-.73,2.29-1.29,2.93-.98,1.11-4.16-3.24-4.7-3.85-5.81-6.66-11.25-13.61-17.85-19.52h0c-.84-.75-.03-2.12,1.03-1.74.33.12.65.23.94.33,3.97,1.31,13.96,4.46,17.9,3.42,8.71-2.31,5.25-12.97,3.86-19.05-1.13-4.92-1.52-4.97-2.18-9.98-.06-.44-1.23-4.83-1.49-5.93.54,3.05,0-.34-.12-.84,0-.02,0-.04.01-.06.31-.54.73-.77,1.25-.94.02,0,.05,0,.08,0,.44.18.74.47.96.62,2.26,1.49,24.15,14.04,26.68,14.3,1.82.18,4.02-.12,5.46-1.32,3.6-3,4.93-17.05,5.41-22.78.31-.03.6-.03.91-.02,2.73,9.22,5.66,16.34,10.65,24.67ZM78.45,11.1s-.04.03-.06.05c-2.33,2.12-6.54-.67-7.13-3.26-.41-1.81,1.04-4.33,2.87-4.77,5.42-1.1,7.27,5,4.31,7.98Z" fill="#3bb54a"/>
    <path id="bot-crown-main" d="M72.42,74.67c-4.72,2.95-9.47,5.68-14.42,8.22-3.85,1.99-11.83,6.56-15.73,4.4-1.36-.76-1.04-2.88-.72-4.46,1.29-6.44,15.61-17.56,21.28-21.38,7.27-4.91,19.44-11.5,28.59-11.55,1.04,0,1.59-.01,2.99.5,7.27,2.66-16.25,20.68-22,24.28Z" fill="#cdd22a"/>
    <g id="crown-base">
      <path id="left-dot" d="M9.18,50.06c.88,1.07,2.18,2.47-.07,4.61-1.87,1.78-4.06,1.71-5.6-.41-1.78-2.45-1.01-4.76.94-5.97,1.61-1.01,2.9-.45,4.73,1.77Z" fill="#e2e41e"/>
      <path id="right-dot" d="M77.46,10.47c.26.17.68.61.99.63-.02.02-.04.03-.06.05-2.33,2.12-6.54-.67-7.13-3.26-.41-1.81,1.04-4.33,2.87-4.77-.06.63.92.65,1.35.8,2.92.96,2.41,4.33,1.97,6.55Z" fill="#e2e41e"/>
      <path id="mid-dot" d="M36.01,17.53c.13,1.45-1.02,4.26-.81,4.68l.17.09c-2.01,1.98-5.31,2.37-7.3.14-3.05-3.39-1.04-10.19,4.55-9.78-.13.21-.28.35-.01.65,2.34,1.94,2.82,1.49,3.4,4.22Z" fill="#e2e41e"/>
      <path id="crown-main" d="M77.36,15.34c-.24-.38-.64-.47-.91.02-.58,5.85-1.81,19.77-5.41,22.78-1.45,1.2-5.14,1.29-10.7-1.41-7.28-3.53-18.67-10.1-20.45-11.5-.31-.24-1.97-2.03-2.96-1.13-.75.98-.34,1.06-.22,2.27.38,1.75.35,2.22.35,2.22-.05.03.25,1.12.57,2.56,1.12,4.93.76,4.98,2.22,11.64,1.34,6.09,5.38,16.22-3.33,18.53-3.94,1.04-13.93-2.11-17.9-3.42-1.01-.33-2.25-.82-3.45-1.21-.6-.2-1.03.59-.53.98.68.53,1.36,1.07,2,1.64,6.61,5.91,12.05,12.86,17.85,19.52.53.61,3.71,4.96,4.7,3.85.56-.64.9-2.12,1.29-2.93,2.83-5.93,12.28-13.41,17.48-17.26.5-.38,1.01-.75,1.53-1.11,7.35-5.21,14.61-9.05,23.03-12.39,2.34-.93,4.82-1.96,7.31-2.38-3.05-4.01-6.52-9.13-9.21-13.45-.32-.52-2.13-2.91-1.34-3.44,1.2-.81,3.53,3.9,4.16,4.84l6.02,8.89c.69,1.01,1.35,2.25,2.25,3.07.24.05.48.1.71.14-1.38-2.27-3.03-4.36-4.4-6.64-4.99-8.33-7.92-15.45-10.65-24.67ZM47.37,68.3c-3.08,3.07-5.22,5.9-7.56,9.49-1.78,2.48-.54-1.19-.05-2.11,1.7-3.19,4.83-6.87,7.85-8.86.28-.18,1.17-.71,1.44-.33-.03.49-1.29,1.43-1.69,1.82ZM50.25,34.67c-1.76-1.04-3.38-2.28-5.1-3.38.52.1,3.2,1.5,3.85,1.81,2.43,1.17,12.52,6.26,14.9,6.71-2.38.73-11.42-3.83-13.66-5.15Z" fill="#e2e41e"/>
    </g>
    <g id="shadows">
      <path id="mid-highlight" d="M63.9,39.81c-2.38.73-11.42-3.83-13.66-5.15-1.76-1.04-3.38-2.28-5.1-3.38.52.1,3.2,1.5,3.85,1.81,2.43,1.17,12.52,6.26,14.9,6.71Z" fill="#3bb54a"/>
      <path id="low-highlight" d="M49.06,66.48c-.03.49-1.29,1.43-1.69,1.82-3.08,3.07-5.22,5.9-7.56,9.49-1.78,2.48-.54-1.19-.05-2.11,1.7-3.19,4.83-6.87,7.85-8.86.28-.18,1.17-.71,1.44-.33Z" fill="#3bb54a"/>
      <path id="left-highlight" d="M21.1,61.48c-2.06-1.97-3.93-3.36-4.18-3.09s1.33,1.38,3.39,3.35,3.82,4.05,4.07,3.79-1.21-2.07-3.27-4.05Z" fill="#3bb54a"/>
    </g>
    <g id="dots">
      <path id="rt-dot-shine" d="M73.17,7.76c.32.87,1.05,1.41.58,1.58s-1.11-.4-1.43-1.27-.19-1.72.28-1.89.26.71.58,1.58Z" fill="#30368b"/>
      <path id="md-dot-shine" d="M28.62,19.09c.23,1.03.97,1.73.41,1.86s-1.19-.61-1.42-1.63.04-1.96.59-2.08.18.83.41,1.86Z" fill="#30368b"/>
      <path id="lt-dot-shine" d="M4.25,52.32c.29.8.96,1.29.53,1.44s-1.02-.36-1.31-1.16-.18-1.57.26-1.73.24.65.53,1.44Z" fill="#30368b"/>
    </g>
  </g>
</svg>