<?xml version="1.0" encoding="UTF-8"?>
<svg id="brand_logo" data-name="brand logo" xmlns="http://www.w3.org/2000/svg" viewBox="0 0 81.29 99.75">
  <g id="knuckleheads">
    <g id="skull">
      <path id="outline-main" d="M80.11,16.93c-.92-.94-2.32-1.38-3.58-1.04-.45.13-.96.29-1.32.54-1.51,1.05-2.19,2.76-1.65,4.69-2.21,2.3-4.74,4.19-7.58,5.65-.55.29-.98.7-1.61.58-.29-1.27-.68-2.49-.54-3.72l.48-3.99c1.71-.29,2.56-1.56,2.38-3.13-.14-1.27-.98-2.32-2.28-2.4-1.02-.07-1.96.14-2.52.87-.57.71-.79,1.64-.5,2.61-.31.54-.82.83-1.31,1.19-1.24.9-2.37,1.81-3.84,2.31-.13-2.56-.14-4.94.12-7.41,2.14-.67,3.41-2.81,3.15-4.95-.25-2-1.76-3.5-3.86-3.76-1.9-.24-3.62,1.04-4.37,2.81-.44,1.06-.33,2.2-.04,3.43-2.08,2.92-4.69,5.29-7.4,7.72-1.24-1.53-2.15-3.31-2.58-5.29l-1-4.58.87-.88c.89-1.33.7-3.07-.49-4.05-1.2-1-2.95-.93-4.05.29-.93,1.04-1.15,2.77-.07,3.83.18.18.3.23.18.54-1.04,3.02-2.8,5.69-5.41,7.59-1.9-2.92-3.49-5.9-4.59-9.13-.12-.36.02-.43.18-.64.96-1.34,1.06-3.05.25-4.52C26.48.85,25.07-.03,23.44,0c-2.47.04-4.22,2.4-3.84,4.77.19,1.15.71,2.15,1.77,2.78l-1.84,10.82c-1.4,1.2-1.84,3.05-1.17,4.66.02.11.02.21,0,.33l-.83.36-.81.39-.62.3h-.01c-2.4,1.2-4.7,2.55-6.71,4.38-3.15,2.88-5.62,6.26-7.35,10.15C.19,43.08-.33,47.53.19,52.08c.88,7.59,4.96,13.43,10.92,18.16-1.23,4.58-.98,9.53,3.31,12.05,1.68,1.04,3.55,1.42,5.72,1.5l-4.3,11.6c6.01,2.27,11.91,3.62,18.07,4.14,8.75.76,17.68-.39,25.4-4.34-1.83-4.37-3.61-8.46-5.03-13,1.68-.04,3.26.08,4.84-.35,1.78-.5,3.44-1.42,4.43-3.01,1.78-2.88.37-7.67-1.24-10.77l2.17-2.27c.36.5.82.73,1.31.62,1.52-.35,1.49-2.46,1.46-4.31,2.39-3.82,3.99-8.01,4.3-12.48-.08-.18-.37-.44-.27-.75.06-.17.19-.38.43-.45.08-1.7.06-3.55-.39-5.21l-.29-1.06-.54-1.83c1.63-.89,2.24-2.71,1.83-4.59,1.55-4.01,3.21-7.9,5.21-11.79,1.39-.27,2.53-.88,3.2-2.03.92-1.57.67-3.65-.63-4.96ZM62.48,16.09c.36-.86,1.27-1.14,2.09-.93.55.14.88.49,1.07.93.26.62.1,1.05-.17,1.52-.43.77-1.4,1.15-2.24.7-.75-.43-1.09-1.46-.76-2.22ZM61.93,18.87c.44.26.74.49,1.07.81l-.57,4.31.45,3.99c-1.19.52-2.59.58-3.8.29-1.73-.43-2.25-3.44-2.75-5.54,2.13-.95,3.88-2.31,5.59-3.84ZM52.66,8.67c.45-1.34,1.83-2.25,3.26-1.82,1.49.45,2.26,1.82,1.87,3.3-.37,1.4-1.65,2.17-3.11,1.83-1.51-.35-2.49-1.86-2.02-3.31ZM37.33,5.33c.39-.55,1.05-.74,1.83-.62.93.13,1.44,1.18,1.25,2.13-.15.77-.77,1.33-1.46,1.46-.74.14-1.37-.38-1.73-1.02-.37-.64-.31-1.38.11-1.95ZM37.98,9.32l1.14.12c.21,3.72,1.37,7.19,3.38,10.36-1.15.81-2.27,1.34-3.57,1.63-2.7.62-4.97-1.62-6.64-3.8,2.89-2.62,4.3-4.81,5.69-8.32ZM21.16,4.13c.05-1.18.87-2.15,1.92-2.37.36-.07.74-.06,1.13.06,1.12.35,1.73,1.27,1.73,2.44,0,.04,0,.06-.01.1-.04.99-.68,2.08-1.75,2.3-1.64.36-3.07-.99-3.01-2.52ZM19.68,20.3c.19-.51.65-1.17,1.23-.84,1.02.56.07,3.96-1.08,3.3-.75-.44-.38-1.81-.14-2.45ZM13.48,26.24c.18-.29.51-.38.96-.36.54.02.84.29.94.75.1.44-.1.86-.49,1.06-.46.24-.93.17-1.33-.33-.29-.36-.29-.79-.08-1.12ZM9.24,30.97c.32-.19.64.04.77.29.1.17-.05.49-.25.61-.25.14-.51.07-.7-.15-.14-.18-.18-.54.18-.74ZM64.49,56.42l-.57,7.29-.79,1.24c-1.45,2.31-3.18,4.3-4.94,6.37l3.26-2.49c1.4,3.49,2.52,7.76-.59,9.92-1.18.82-2.77,1.13-4.27.9l-6.66-.98,5.75,15.04c-2,.89-3.87,1.62-5.93,1.86l-1.71-4.09-2.96-7.34c-.27.32,0,.58.05.77l1.65,8.04.51,3.06c-2.03.37-3.9.8-5.97.83l-1.99-11.67c-.07-.39.02-.79-.21-1.2l-.31,12.9c-1.99-.02-3.8.06-5.6-.31-.06-4.56.15-8.83.33-13.11-.26.46-.21.94-.31,1.42l-2.26,11.41-4.6-.81,2.13-11.84-4.41,11.35c-1.68-.38-3.14-.79-4.6-1.43l4.96-13.29c-2.44.48-4.65.8-7.04.62-2.68-.21-4.71-2.14-5.29-4.77-.37-1.7-.26-3.49-.02-5.19l3.78,2.26c-4.72-4.28-8.51-8.54-10.55-14.69-2.43-7.22-1.21-14.97,3.45-20.96,1.31-1.69,2.68-3.16,4.31-4.43l1.55-1.19c.51,1.31,1.49,2.14,2.86,2.51.25.73.14,1.58-.04,2.4l-.56,2.59c-.29,1.33-.5,2.7.05,3.94.3.65.95,1.11,1.61,1.06,2.76-.2.45-6.19,2.12-8.51.18-.26.46-.35.62-.24.48.33-.18,1.42-.1,2.69.06.84.62,1.44,1.36,1.46.68.02,1.39-.31,1.53-1.07l.38-2.01,2.18.64,23.59,7.88,5.25,1.8c.26,2.65.24,5.28-.33,7.9-.42,1.89-.31,3.77,1.23,3.94,1.33.15,2-1.45,1.71-3.37-1.18-8.15,1.31-7.72,1.04-6.06l-.46,2.77c-.12.77.43,1.44,1.2,1.51.58.06,1.38-.42,1.4-1.19l.13-3.41,2.71.7c.38,1.09.51,2.24.49,3.44l-.07,3.13ZM66.75,56.62c-.27-1.93-.3-4.87.76-6.32-.04,2.19-.1,4.22-.76,6.32ZM70.88,38.09c-.11.38-.19.61-.52.81-.21.13-.74.4-.94.01-.52-1,.04-2.28.87-2.84.24-.15.5-.11.62.1.42.68.14,1.27-.02,1.93ZM72,31.77l-.79,1.74c-.02.06-.1.19-.12.26l-.5,1.27c-1.92.81-2.77,3.11-1.63,4.96-.13.68-.37,1.38-.69,2.08l-7.89-2.17-8.2-2.28c-.02.08-.07.12-.12.15l7.66,2.99,7.48,2.57c.63.21,1.26.63,1.61,1.18.58.93.48,2.2-.04,3.05-.07.13-.12.46-.35.57-1.27.63-2,1.74-2.25,3.13-.49,2.59-.35,5.18-.04,7.75l.37,3.12c.35,2.86-.74,4.18-1.29,3.47-.69-.9-.68-2.22-.55-3.47.38-3.62.95-8.41.36-11.6-.2-1.09-.81-2.31-1.89-2.92-.8-.46-1.74.08-2.34.63-.01.89-.48,1.74-.26,2.81.11.51.08,1.14-.06,1.55-.1.25-.18.5-.52.51-.63.02-.88-1.06-.42-2.25.63-1.63.05-3.13-.96-3.15-.35-.01-.67.26-.93.59-1.08,1.38-.67,5.25-.31,7.57.11.79.11,1.56-.37,2.13-.11.12-.18.26-.33.27-.19.02-.39.01-.59-.13-.57-.43-.64-1.21-.5-1.9l.55-2.77c.26-1.37.25-2.76.3-4.16l-.1-.4c-.1-1.53-.38-3.88-1.36-4.15-.07-.02-.15.25-.26.32l-9.04-3.01-19.37-6.52c-.19-.06-.38,0-.48-.07-.15-.12.04-.26.06-.33-.13-.21-.5-.21-.69-.23-.38.38-1.01.49-1.29,1.11-.68,1.52-.12,3.2-1.36,3.11-.32-.02-.61-.35-.57-.76l.19-2.01c.05-.56.06-1.48-.58-1.76-.74-.33-1.32.61-1.92,1.19-.87,3.38.06,5.35-.54,7.45-.08.27-.38.42-.59.43-1.07.02-1.63-1.55-1.26-3.02l.82-3.3c.48-1.93.39-4.52-1-5.93l.19,1.15c-1.17-.49-1.25-1.53-1.14-2.56.13-1.25,1.33-2.8,2.83-2.36l9.52,2.77,11.54,3.32s.05-.1.12-.13l-12.64-4.64-7.89-2.92c.01-.62.06-1.7.54-2.07,1.98-.86,2.52-3.88,1.59-5.06-.33-.42-.55-.58-.42-1.21.7-3.3,1.32-6.53,1.75-9.86l1.08-.04c.26-.01.55-.12.87,0,1.58,4.19,3.91,8.83,6.81,12.11,1.42,1.59,3.06,2.77,5.04,3.3-1.36.45-2.57.1-3.9-.07,3.86,2.06,7.95.33,11.32-2.47,3.03-2.51,5.83-5.13,8.28-8.19l.71.4.2.04c.38.07.81.19,1.19.45-.63,5.43-.56,12.56,2.59,16.66.9,1.18,2.12,2.08,3.49,2.57-.65-.69-1.43-1.11-1.77-1.83-.12-.24-.67-.4-.64-.92,1.43.58,2.87.42,4.34.05,4.19-1.04,8.72-4.26,11.97-7.36l1.19.75-3.84,8.47ZM79.36,21.06c-.54,1.09-1.98,1.63-3.19.98-1.05-.55-1.61-1.84-1.13-3.07.44-1.13,1.53-1.76,2.81-1.46.8.18,1.43.69,1.65,1.37.29.83.19,1.5-.14,2.19Z" fill="#2e2769"/>
      <path id="skull-dot-light" d="M14.9,27.69c-.46.24-.93.17-1.33-.33-.29-.36-.29-.79-.08-1.12.18-.29.51-.38.96-.36.54.02.84.29.94.75.1.44-.1.86-.49,1.06Z" fill="#8ccb8e"/>
      <path id="skull-dot-light-2" data-name="skull-dot-light" d="M72.3,49.46c-.14.19-.5.2-.74.15-.08-.18-.37-.44-.27-.75.06-.17.19-.38.43-.45.23,0,.39.15.51.29.19.21.24.55.07.76Z" fill="#8ccb8e"/>
      <path id="skull-dot-light-3" data-name="skull-dot-light" d="M72.4,42.45c.02.31-.12.65-.55.67-.21.01-.37.01-.54.08l-.29-1.06c.24.13.43-.04.64-.12.42-.17.7.15.73.43Z" fill="#8ccb8e"/>
      <path id="skull-dot-light-4" data-name="skull-dot-light" d="M9.76,31.86c-.25.14-.51.07-.7-.15-.14-.18-.18-.54.18-.74.32-.19.64.04.77.29.1.17-.05.49-.25.61Z" fill="#8ccb8e"/>
      <path id="skull-main" d="M58.2,71.32c1.76-2.07,3.49-4.06,4.94-6.37-.7-1.4-.18-3.51-.19-5.25l-.02-5.93-1.53,1.53c-.5.49-1.43.32-2.18.26-.06,1.89.17,3.75-1.12,5.29-.75.89-2.34,1.06-3.21.45-1.84-1.27-1.73-3.3-1.26-5.43.49-2.3.65-4.52.45-6.87l-19.83-6.81-8.33-2.83c-.92-.31-.79,1.52-2.4,1.89-.84.2-1.63-.14-2.26-.67l-.3,2.99c-.31,1.21-1.23,2.12-2.32,2.31-1.23.21-2.36-.37-3.01-1.43-.49-.79-.61-1.7-.45-2.64l.89-5.59-1.56-1.07c-.75-.51-1.46-1.13-1.44-2.08-1.63,1.26-3,2.74-4.31,4.43-4.66,6-5.88,13.74-3.45,20.96,2.05,6.15,5.83,10.41,10.55,14.69l-3.78-2.26c-.24,1.7-.35,3.49.02,5.19.58,2.63,2.62,4.56,5.29,4.77,2.39.18,4.6-.14,7.04-.62l-4.96,13.29c1.46.64,2.93,1.05,4.6,1.43l4.41-11.35-2.13,11.84,4.6.81,2.26-11.41c.1-.48.05-.95.31-1.42-.18,4.28-.39,8.55-.33,13.11,1.81.37,3.62.29,5.6.31l.31-12.9c.24.42.14.81.21,1.2l1.99,11.67c2.07-.04,3.94-.46,5.97-.83l-.51-3.06-1.65-8.04c-.05-.19-.32-.45-.05-.77l2.96,7.34,1.71,4.09c2.06-.24,3.93-.96,5.93-1.86l-5.75-15.04,6.66.98c1.5.23,3.09-.08,4.27-.9,3.12-2.17,2-6.44.59-9.92l-3.26,2.49ZM28.34,72.07c-5.79,1.83-12.17-.71-15.3-5.89-.62-1.3-1.17-2.44-1.02-4.02,3.91,2.53,7.84,4.58,12.3,5.73,2.71.7,5.31,1,8.26,1.46-1.14,1.37-2.61,2.2-4.24,2.71ZM35.13,76.63c-1.18,1.31-3.51,1.42-4.53.26l4.01-5.46c.84.58,1,1.59,1.12,2.56.12.99.06,1.93-.59,2.64ZM40.21,77.64c-1.9.43-3.93-.52-4.15-2.5-.17-1.37.38-2.83,1.5-3.77l3.38,5.56c.23.38-.33.62-.73.71ZM45.92,72.32c-2.31-.29-4.41-1.12-6.1-2.65,1.63-.54,3.02-.65,4.52-.86,6.2-1.06,10.89-3.46,16.32-6.84.15,1.31-.27,2.5-.96,3.68-2.8,4.76-8.3,7.33-13.78,6.67Z" fill="#f5fbfd"/>
      <path id="skull-small" d="M67.51,50.31c-.04,2.19-.1,4.22-.76,6.32-.27-1.93-.3-4.87.76-6.32Z" fill="#f5fbfd"/>
      <path id="nose-right" d="M40.21,77.63c-1.91.43-3.93-.53-4.16-2.5-.16-1.37.39-2.83,1.51-3.77l3.37,5.56c.23.38-.33.62-.72.71Z" fill="#2e2769"/>
      <path id="nose-left" d="M35.13,76.63c-1.18,1.31-3.52,1.41-4.54.25l4.01-5.45c.85.58,1,1.59,1.11,2.55s.06,1.93-.59,2.65Z" fill="#2e2769"/>
      <path id="eye-right" d="M45.91,72.31c-2.31-.28-4.41-1.12-6.09-2.65,1.63-.53,3.02-.66,4.52-.86,6.2-1.06,10.88-3.46,16.33-6.84.15,1.3-.28,2.5-.97,3.67-2.8,4.77-8.31,7.34-13.79,6.68Z" fill="#2e2769"/>
      <path id="eye-left" d="M32.58,69.36c-1.14,1.36-2.6,2.2-4.23,2.71-5.8,1.83-12.17-.72-15.3-5.9-.63-1.3-1.17-2.43-1.03-4.01,3.91,2.53,7.85,4.58,12.3,5.73,2.72.7,5.31,1,8.26,1.47Z" fill="#2e2769"/>
    </g>
    <g id="crown">
      <path id="crown-shadow" d="M64.56,53.29l-.07,3.13-.57,7.29-.79,1.24c-.7-1.4-.18-3.51-.19-5.25l-.02-5.93-1.53,1.53c-.5.49-1.43.32-2.18.26-.06,1.89.17,3.75-1.12,5.29-.75.89-2.34,1.06-3.21.45-1.84-1.27-1.73-3.3-1.26-5.43.49-2.3.65-4.52.45-6.87l-19.83-6.81-8.33-2.83c-.92-.31-.79,1.52-2.4,1.89-.84.2-1.63-.14-2.26-.67l-.3,2.99c-.31,1.21-1.23,2.12-2.32,2.31-1.23.21-2.36-.37-3.01-1.43-.49-.79-.61-1.7-.45-2.64l.89-5.59-1.56-1.07c-.75-.51-1.46-1.13-1.44-2.08l1.55-1.19c.51,1.31,1.49,2.14,2.86,2.51.25.73.14,1.58-.04,2.4l-.56,2.59c-.29,1.33-.5,2.7.05,3.94.3.65.95,1.11,1.61,1.06,2.76-.2.45-6.19,2.12-8.51.18-.26.46-.35.62-.24.48.33-.18,1.42-.1,2.69.06.84.62,1.44,1.36,1.46.68.02,1.39-.31,1.53-1.07l.38-2.01,2.18.64,23.59,7.88,5.25,1.8c.26,2.65.24,5.28-.33,7.9-.42,1.89-.31,3.77,1.23,3.94,1.33.15,2-1.45,1.71-3.37-1.18-8.15,1.31-7.72,1.04-6.06l-.46,2.77c-.12.77.43,1.44,1.2,1.51.58.06,1.38-.42,1.4-1.19l.13-3.41,2.71.7c.38,1.09.51,2.24.49,3.44Z" fill="#76d1f6"/>
      <path id="crown-dark" d="M42.5,19.8c-1.15.81-2.27,1.34-3.57,1.63-2.7.62-4.97-1.62-6.64-3.8,2.89-2.62,4.3-4.81,5.69-8.32l1.14.12c.21,3.72,1.37,7.19,3.38,10.36Z" fill="#c9b32e"/>
      <path id="crown-dark-2" data-name="crown-dark" d="M56.4,49.31l-.1-.4c-.1-1.53-.38-3.88-1.36-4.15-.07-.02-.15.25-.26.32l-9.04-3.01-19.37-6.52c-.19-.06-.38,0-.48-.07-.15-.12.04-.26.06-.33-.13-.21-.5-.21-.69-.23.27-.27.68-.7,1.29-.51l10.43,3.2,14.8,4.47c2.27.69,4.39,1.3,4.72,3.41.21,1.34.38,2.63-.01,3.82Z" fill="#c9b32e"/>
      <path id="crown-dark-3" data-name="crown-dark" d="M62.43,23.99l.45,3.99c-1.19.52-2.59.58-3.8.29-1.73-.43-2.25-3.44-2.75-5.54,2.13-.95,3.88-2.31,5.59-3.84.44.26.74.49,1.07.81l-.57,4.31Z" fill="#c9b32e"/>
      <path id="crown-dark-4" data-name="crown-dark" d="M27.5,28.97l-7.89-2.92c.01-.62.06-1.7.54-2.07,1.98-.86,2.52-3.88,1.59-5.06-.33-.42-.55-.58-.42-1.21.7-3.3,1.32-6.53,1.75-9.86l1.08-.04c.04.11.07.35-.1.4-.26,2.99-.52,6.1-1.23,9.16-.19.81.2,1.24.5,1.89.8,1.77-1.56,5.09,1.92,7.81l1.93,1.5.36.15c.06.02-.01.15-.04.24Z" fill="#c9b32e"/>
      <path id="crown-dark-5" data-name="crown-dark" d="M71.09,33.77l-.5,1.27c-1.92.81-2.77,3.11-1.63,4.96-.13.68-.37,1.38-.69,2.08l-7.89-2.17c.06-.15.19-.18.37-.18l3.82-.21c.92-.05,2-.62,2.39-1.5l.76-1.7c.65-1.45,1.83-2.47,3.37-2.56Z" fill="#c9b32e"/>
      <path id="crown-dark-6" data-name="crown-dark" d="M65.53,50.53c-.11.11-.32.05-.48,0-.2-1.09-.81-2.31-1.89-2.92-.8-.46-1.74.08-2.34.63.02-.88.79-1.65,1.63-1.93,1-.32,1.96.2,2.61.96.79.93.74,3.01.48,3.25Z" fill="#c9b32e"/>
      <path id="crown-dark-7" data-name="crown-dark" d="M22.14,36.35c.05-.56.06-1.48-.58-1.76-.74-.33-1.32.61-1.92,1.19.19-.71.18-1.57.77-2.23.33-.38,1.25-.51,1.68-.24.98.62.99,3.26.05,3.03Z" fill="#c9b32e"/>
      <path id="crown-light" d="M49.93,16.78c-1.07,1.26-2.22,2.51-3.47,3.74.12.46.39.92.29,1.45-.07.35-.38.75-.88,1.02-.56.32-1.21,0-1.62-.55-3.19,2.44-6.78,3.52-10.58,1.93-1.39-.59-3.06-2.55-3.11-2.92-.01-.14.13-.29.37-.27l-1.34-1.78c-2.37-3.13-4.01-7.7-5.52-11.17.17-.06.13-.3.1-.4.26-.01.55-.12.87,0,1.58,4.19,3.91,8.83,6.81,12.11,1.42,1.59,3.06,2.77,5.04,3.3-1.36.45-2.57.1-3.9-.07,3.86,2.06,7.95.33,11.32-2.47,3.03-2.51,5.83-5.13,8.28-8.19l.71.4-3.36,3.88Z" fill="#f5fbfd"/>
      <path id="crown-light-2" data-name="crown-light" d="M75.84,23.3l-3.84,8.47-.79,1.74c-.12.11-.76,0-.7-.2l.86-2.77c-.51.11-.93.02-1.15-.31-.23-.32-.14-.8.21-1.09.45-.39,1.04-.23,1.51.39l2.74-5.95c-1.25.76-2.06,1.81-3.16,2.65-1.68,1.31-3.25,2.62-5.2,3.45-2.38,1.01-4.82,1.53-7.33,1.11-.12-.24-.67-.4-.64-.92,1.43.58,2.87.42,4.34.05,4.19-1.04,8.72-4.26,11.97-7.36l1.19.75Z" fill="#f5fbfd"/>
      <path id="crown-light-3" data-name="crown-light" d="M38.43,34.72l-12.75-3.55-4.82-1.49c-1.32-.4-2.67-.65-3.95.08-.24.13-.5.32-.79.24.13-1.25,1.33-2.8,2.83-2.36l9.52,2.77c-.06.46.38.39.7.52l9.26,3.77Z" fill="#f5fbfd"/>
      <path id="crown-light-4" data-name="crown-light" d="M68.79,47.57c-.44-.86-.74-2.38-1.49-2.67l-6.89-2.56-10.27-3.84c.06-.05.11-.11.14-.17l3.89,1.12,5.56,1.32,7.48,2.57c.63.21,1.26.63,1.61,1.18.58.93.48,2.2-.04,3.05Z" fill="#f5fbfd"/>
      <path id="crown-light-5" data-name="crown-light" d="M57.27,30.04c-.27.04-.43-.18-.63-.38-3.59-3.72-3.53-10.08-3.09-15.22.05-.56.15-1.07-.06-1.51.38.07.81.19,1.19.45-.63,5.43-.56,12.56,2.59,16.66Z" fill="#f5fbfd"/>
      <path id="crown-light-6" data-name="crown-light" d="M19.11,43.23c-.08.27-.38.42-.59.43-1.07.02-1.63-1.55-1.26-3.02l.82-3.3c.25.01.18.17.2.26.05.21-.13.44-.14.58l-.29,3.14c-.08.93.48,1.58,1.26,1.9Z" fill="#f5fbfd"/>
      <path id="crown-light-7" data-name="crown-light" d="M65.24,65.61c-.11-.58.87-1.08.83-2.47l-.12-3.95c-.01-.15.13-.19.2-.17l.37,3.12c.35,2.86-.74,4.18-1.29,3.47Z" fill="#f5fbfd"/>
      <path id="crown-light-8" data-name="crown-light" d="M56.98,58c-.11.12-.18.26-.33.27-.19.02-.39.01-.59-.13-.57-.43-.64-1.21-.5-1.9l.55-2.77c.45.64-.23,2.12.17,3.65l.71.88Z" fill="#f5fbfd"/>
      <path id="crown-light-9" data-name="crown-light" d="M60.49,52.6c-.1.25-.18.5-.52.51-.63.02-.88-1.06-.42-2.25.5.5,0,1.57.94,1.74Z" fill="#f5fbfd"/>
      <path id="crown-reflection" d="M44.73,27.31c.42.07-.68,1.86-.68,3.62-.91-1.81.31-3.68.68-3.62Z" fill="#2e2769"/>
      <path id="crown-reflection-2" data-name="crown-reflection" d="M50.31,32.67c.24-1.28.99-2.27,1-3.5.55,1.25.33,2.8-1,3.5Z" fill="#2e2769"/>
      <path id="crown-dot-light" d="M24.84,17.56c-.43-.15-.57-.57-.6-.81s.12-.63.44-.75c.57-.21.92.21,1.06.62.15.46-.33,1.14-.9.94Z" fill="#f5fbfd"/>
      <path id="crown-dot-light-2" data-name="crown-dot-light" d="M46.07,23.18c.31-.19.69-.22.87.14.12.24.06.6-.14.84-.25.28-.69.21-.86-.03-.23-.31-.2-.75.14-.95Z" fill="#f5fbfd"/>
      <path id="crown-dot-light-3" data-name="crown-dot-light" d="M69.27,30.48c.27-.2.63.02.71.18.11.23.02.53-.2.68-.17.12-.5.07-.61-.08-.16-.2-.19-.57.1-.78Z" fill="#f5fbfd"/>
      <path id="crown-dot-light-4" data-name="crown-dot-light" d="M25.89,17.98c.28-.23.52-.07.62.1.13.24.04.51-.1.63-.19.18-.45.14-.59.03-.21-.17-.22-.52.07-.76Z" fill="#f5fbfd"/>
      <path id="crown-ball-light" d="M65.48,17.61c-.67.05-1.08-.39-1.3-.96-.19-.51.06-1,.39-1.49.55.14.88.49,1.07.93.26.62.1,1.05-.17,1.52Z" fill="#f5fbfd"/>
      <path id="crown-ball-light-2" data-name="crown-ball-light" d="M40.41,6.84c-.56.05-1.06-.07-1.43-.55-.36-.46-.32-1.12.18-1.58.93.13,1.44,1.18,1.25,2.13Z" fill="#f5fbfd"/>
      <path id="crown-ball-light-3" data-name="crown-ball-light" d="M79.36,21.06c-.39-.06-.87-.06-1.19-.29-1.09-.75-1.17-2.25-.32-3.27.8.18,1.43.69,1.65,1.37.29.83.19,1.5-.14,2.19Z" fill="#f5fbfd"/>
      <path id="crown-ball-light-4" data-name="crown-ball-light" d="M25.93,4.26c-.36.24-.69.55-1.17.46-.82-.15-1.59-1.23-1.39-2.07.1-.39.39-.68.83-.83,1.12.35,1.73,1.27,1.73,2.44Z" fill="#f5fbfd"/>
      <path id="crown-ball-light-5" data-name="crown-ball-light" d="M57.79,10.15c-.46.15-.82.29-1.42.11-.4-.13-.7-.5-.96-1.04-.46-.93-.25-1.77.51-2.37,1.49.45,2.26,1.82,1.87,3.3Z" fill="#f5fbfd"/>
      <path id="crown-ball" d="M65.48,17.61c-.43.77-1.4,1.15-2.24.7-.75-.43-1.09-1.46-.76-2.22.36-.86,1.27-1.14,2.09-.93-.33.49-.58.98-.39,1.49.21.57.63,1.01,1.3.96Z" fill="#4bb1e4"/>
      <path id="crown-ball-2" data-name="crown-ball" d="M40.41,6.84c-.15.77-.77,1.33-1.46,1.46-.74.14-1.37-.38-1.73-1.02-.37-.64-.31-1.38.11-1.95.39-.55,1.05-.74,1.83-.62-.5.46-.54,1.12-.18,1.58.37.48.87.59,1.43.55Z" fill="#4bb1e4"/>
      <path id="crown-ball-3" data-name="crown-ball" d="M79.36,21.06c-.54,1.09-1.98,1.63-3.19.98-1.05-.55-1.61-1.84-1.13-3.07.44-1.13,1.53-1.76,2.81-1.46-.84,1.02-.77,2.52.32,3.27.32.23.8.23,1.19.29Z" fill="#4bb1e4"/>
      <path id="crown-ball-4" data-name="crown-ball" d="M25.93,4.26s0,.06-.01.1c-.04.99-.68,2.08-1.75,2.3-1.64.36-3.07-.99-3.01-2.52.05-1.18.87-2.15,1.92-2.37.36-.07.74-.06,1.13.06-.44.15-.74.44-.83.83-.2.84.57,1.92,1.39,2.07.48.08.81-.23,1.17-.46Z" fill="#4bb1e4"/>
      <path id="crown-ball-5" data-name="crown-ball" d="M57.79,10.15c-.37,1.4-1.65,2.17-3.11,1.83-1.51-.35-2.49-1.86-2.02-3.31.45-1.34,1.83-2.25,3.26-1.82-.76.59-.98,1.44-.51,2.37.26.54.56.9.96,1.04.59.18.95.05,1.42-.11Z" fill="#4bb1e4"/>
      <path id="crown-jewel-outline" d="M48.64,33.15c-.65.44-1.33.6-2.03.43-.63-.16-1.23-.68-1.51-1.43-.69-1.8-.13-4.04,1.46-5.15.7-.49,1.55-.63,2.36-.33.56.21,1.13.84,1.35,1.6.51,1.78-.07,3.83-1.63,4.88ZM49.49,29.92c.13-.68-.03-1.25-.34-1.77-.38-.63-1.2-.84-1.96-.35-1.43.92-1.82,3-.92,4.42.36.57,1.13.63,1.67.27.89-.59,1.37-1.56,1.56-2.57Z" fill="#2e2769"/>
      <path id="crown-jewel-outline-2" data-name="crown-jewel-outline" d="M29.69,24.04c-.06.62-.29,1.01-.55,1.24-.42.36-.98.49-1.45.19-.53-.34-.57-1.05-.47-1.6s.46-1.11,1.13-1.26c.8-.18,1.43.6,1.34,1.44ZM28.19,24.96c.6.04.83-.46.88-.74.07-.39.04-.99-.43-1.02-.44-.04-.69.47-.79.75-.11.32-.12.98.35,1.02Z" fill="#2e2769"/>
      <path id="crown-jewel-outline-3" data-name="crown-jewel-outline" d="M64.05,37.13c-.55.22-1.13-.03-1.28-.62-.22-.86.16-2.05,1.12-2.34.73-.22,1.23.61,1.2,1.24-.04.78-.32,1.43-1.03,1.72ZM63.68,36.57c.67.05,1.21-1.37.6-1.68-.47-.24-.75.3-.88.58-.15.31-.26,1.06.28,1.1Z" fill="#2e2769"/>
      <path id="crown-jewel-light" d="M20.91,19.45l-.42,1.01c-.08.21-.37.38-.48.31-.19-.12-.2-.32-.33-.48.19-.51.65-1.17,1.23-.84Z" fill="#f5fbfd"/>
      <path id="crown-jewel-light-2" data-name="crown-jewel-light" d="M70.88,38.09c-.31-.02-.57.06-.95-.1.19-.65.4-1.25.36-1.93.24-.15.5-.11.62.1.42.68.14,1.27-.02,1.93Z" fill="#f5fbfd"/>
      <path id="crown-jewel-light-3" data-name="crown-jewel-light" d="M49.14,28.14c.32.52.47,1.09.34,1.77-.45.04-.99.15-1.22-.36-.17-.36-.26-.73-.08-1.05s.56-.41.96-.36Z" fill="#f5fbfd"/>
      <path id="crown-jewel" d="M19.82,22.75c-.75-.44-.38-1.81-.14-2.45.13.15.14.36.33.48.11.07.39-.1.48-.31l.42-1.01c1.02.56.07,3.96-1.08,3.3Z" fill="#ef4051"/>
      <path id="crown-jewel-2" data-name="crown-jewel" d="M70.88,38.09c-.11.38-.19.61-.52.81-.21.13-.74.4-.94.01-.52-1,.04-2.28.87-2.84.05.68-.17,1.27-.36,1.93.38.15.64.07.95.1Z" fill="#ef4051"/>
      <path id="crown-jewel-main" d="M49.14,28.14c-.4-.05-.78.06-.96.36s-.09.69.08,1.05c.24.51.78.4,1.22.36-.19,1.01-.67,1.97-1.56,2.57-.54.36-1.3.3-1.67-.27-.91-1.42-.51-3.5.92-4.42.76-.49,1.58-.28,1.96.35Z" fill="#ef4051"/>
      <path id="crown-jewel-3" data-name="crown-jewel" d="M28.19,24.96c-.46-.03-.45-.7-.35-1.02.1-.28.35-.78.79-.75.47.04.5.64.43,1.02-.05.28-.28.78-.88.74Z" fill="#67be63"/>
      <path id="crown-jewel-4" data-name="crown-jewel" d="M63.68,36.57c-.54-.04-.43-.8-.28-1.1.13-.27.41-.82.88-.58.61.31.07,1.73-.6,1.68Z" fill="#67be63"/>
      <path id="crown-main" d="M71.51,26.22c-1.68,1.31-3.25,2.62-5.2,3.45-2.38,1.01-4.82,1.53-7.33,1.11.35.73,1.12,1.14,1.77,1.83-1.37-.49-2.58-1.39-3.49-2.57-.27.04-.43-.18-.63-.38-3.59-3.72-3.53-10.08-3.09-15.22.05-.56.15-1.07-.06-1.51l-.2-.04-3.36,3.88c-1.07,1.26-2.22,2.51-3.47,3.74.12.46.39.92.29,1.45-.07.35-.38.75-.88,1.02-.56.32-1.21,0-1.62-.55-3.19,2.44-6.78,3.52-10.58,1.93-1.39-.59-3.06-2.55-3.11-2.92-.01-.14.13-.29.37-.27l-1.34-1.78c-2.37-3.13-4.01-7.7-5.52-11.17-.26,2.99-.52,6.1-1.23,9.16-.19.81.2,1.24.5,1.89.8,1.77-1.56,5.09,1.92,7.81l1.93,1.5.36.15c.06.02-.01.15-.04.24l12.64,4.64c-.07.04-.11.1-.12.13l-11.54-3.32c-.06.46.38.39.7.52l9.26,3.77-12.75-3.55-4.82-1.49c-1.32-.4-2.67-.65-3.95.08-.24.13-.5.32-.79.24-.11,1.02-.02,2.07,1.14,2.56l-.19-1.15c1.39,1.4,1.48,4,1,5.93.25.01.18.17.2.26.05.21-.13.44-.14.58l-.29,3.14c-.08.93.48,1.58,1.26,1.9.59-2.09-.33-4.07.54-7.45.19-.71.18-1.57.77-2.23.33-.38,1.25-.51,1.68-.24.98.62.99,3.26.05,3.03l-.19,2.01c-.04.42.25.74.57.76,1.24.1.68-1.58,1.36-3.11.27-.62.9-.73,1.29-1.11.27-.27.68-.7,1.29-.51l10.43,3.2,14.8,4.47c2.27.69,4.39,1.3,4.72,3.41.21,1.34.38,2.63-.01,3.82-.05,1.4-.04,2.8-.3,4.16.45.64-.23,2.12.17,3.65l.71.88c.48-.57.48-1.34.37-2.13-.36-2.32-.77-6.19.31-7.57.26-.33.58-.61.93-.59,1.01.02,1.59,1.52.96,3.15.5.5,0,1.57.94,1.74.14-.4.17-1.04.06-1.55-.21-1.07.25-1.92.26-2.81.02-.88.79-1.65,1.63-1.93,1-.32,1.96.2,2.61.96.79.93.74,3.01.48,3.25-.11.11-.32.05-.48,0,.59,3.19.02,7.98-.36,11.6-.13,1.25-.14,2.57.55,3.47-.11-.58.87-1.08.83-2.47l-.12-3.95c-.01-.15.13-.19.2-.17-.31-2.57-.45-5.15.04-7.75.25-1.39.98-2.5,2.25-3.13.23-.11.27-.44.35-.57-.44-.86-.74-2.38-1.49-2.67l-6.89-2.56-10.27-3.84c.06-.05.11-.11.14-.17l3.89,1.12,5.56,1.32-7.66-2.99s.1-.07.12-.15l8.2,2.28c.06-.15.19-.18.37-.18l3.82-.21c.92-.05,2-.62,2.39-1.5l.76-1.7c.65-1.45,1.83-2.47,3.37-2.56.02-.07.1-.2.12-.26-.12.11-.76,0-.7-.2l.86-2.77c-.51.11-.93.02-1.15-.31-.23-.32-.14-.8.21-1.09.45-.39,1.04-.23,1.51.39l2.74-5.95c-1.25.76-2.06,1.81-3.16,2.65ZM24.85,17.56c-.43-.15-.57-.57-.61-.81-.02-.24.12-.64.44-.76.57-.2.92.21,1.06.63.15.45-.33,1.13-.89.94ZM26.4,18.7c-.19.18-.44.14-.58.04-.21-.18-.23-.52.07-.76.27-.23.52-.07.62.1.13.24.04.51-.11.63ZM29.13,25.27c-.42.37-.98.49-1.44.19-.54-.35-.57-1.05-.48-1.59.11-.54.46-1.12,1.13-1.27.8-.18,1.43.61,1.34,1.44-.06.62-.3,1.01-.56,1.24ZM46.07,23.18c.31-.19.69-.21.87.14.12.25.06.61-.14.84-.25.27-.69.2-.87-.02-.23-.32-.2-.75.14-.96ZM44.73,27.32c.43.06-.68,1.86-.68,3.62-.9-1.81.31-3.68.68-3.62ZM48.64,33.15c-.65.44-1.33.59-2.03.43-.63-.15-1.23-.68-1.51-1.43-.69-1.8-.13-4.05,1.46-5.15.7-.49,1.55-.63,2.36-.33.56.2,1.13.83,1.34,1.61.51,1.78-.06,3.83-1.62,4.88ZM50.31,32.67c.24-1.28.99-2.27,1-3.51.55,1.25.33,2.81-1,3.51ZM64.05,37.14c-.55.21-1.13-.04-1.29-.62-.21-.87.17-2.05,1.12-2.34.74-.23,1.23.62,1.19,1.24-.04.79-.31,1.43-1.02,1.73ZM69.77,31.34c-.17.12-.5.07-.61-.07-.17-.2-.19-.58.1-.79.27-.2.63.02.71.18.11.23.01.54-.2.68Z" fill="#fee816"/>
    </g>
    <g id="paint">
      <path id="paint-dot-17-light" d="M14.42,20.32c-.49-.54-.49-1.21-.32-1.79.16-.5.56-.99,1.24-1.1.75-.12,1.43.46,1.61,1.02.25.79,0,1.47-.51,1.92s-1.5.51-2.01-.05Z" fill="#8965ab"/>
      <path id="paint-dot-16-light" d="M79.39,31.09c-.55.39-1.19.17-1.56-.15-.5-.44-.61-1.08-.36-1.75.22-.61.83-.95,1.41-.86s1.05.46,1.22,1.04c.18.61-.07,1.28-.71,1.73Z" fill="#8965ab"/>
      <path id="paint-dot-15-light" d="M75.59,46.52c-.45.61-1.01.92-1.72.71-.54-.16-1.03-.76-.99-1.46.03-.62.48-1.19,1.24-1.31.6-.09,1.11.13,1.42.57.29.41.43.96.04,1.49Z" fill="#8965ab"/>
      <path id="paint-dot-14-light" d="M73.82,37.94c.65-.16,1.22.23,1.43.78.22.6-.18,1.27-.79,1.48s-1.26-.18-1.48-.78c-.23-.63.13-1.3.84-1.48Z" fill="#8965ab"/>
      <path id="paint-dot-13-light" d="M14.96,22.01c.49-.24.91,0,1.1.29.26.42.07.89-.25,1.07-.4.22-.92.14-1.09-.11-.28-.4-.23-1.02.25-1.26Z" fill="#8965ab"/>
      <path id="paint-dot-10-light" d="M16.42,16.39c.2-.14.44-.03.54.14.11.21.08.45-.08.61-.21.22-.46.18-.6-.11-.09-.19-.13-.45.13-.64Z" fill="#8965ab"/>
      <path id="paint-dot-9-light" d="M72.39,45.59c.19-.1.31.09.33.18.03.15-.02.28-.13.35-.15.09-.25,0-.31-.09-.09-.12-.1-.34.12-.45Z" fill="#8965ab"/>
      <path id="paint-dot-6-light" d="M66.85,22.03c.55-.33,1.29-.08,1.58.43.25.46.14,1.1-.44,1.39-.47.24-1.12.26-1.46-.31-.24-.4-.27-1.15.33-1.51Z" fill="#8965ab"/>
      <path id="paint-dot-5-light" d="M69.48,20.83c.28-.3.67-.23.9.02.19.19.2.69-.06.93-.16.15-.53.21-.8-.02-.2-.16-.39-.57-.04-.94Z" fill="#8965ab"/>
      <path id="paint-dot-4-light" d="M61.72,12.06c.19-.19.5-.13.68.11.11.15.18.4-.07.62-.13.12-.38.25-.65,0-.16-.15-.27-.42.04-.72Z" fill="#8965ab"/>
      <path id="paint-dot-3-light" d="M46.07,9.83c.33-.1.5.03.56.27.07.26-.03.46-.2.53-.24.1-.53.07-.67-.16-.12-.2-.01-.54.31-.64Z" fill="#8965ab"/>
      <path id="paint-dot-2-light" d="M31.12,10.4c.58-.26,1.18.13,1.33.51.23.59-.03,1.11-.54,1.33-.42.18-1.09-.02-1.27-.37-.28-.54-.09-1.21.48-1.47Z" fill="#8965ab"/>
      <path id="paint-dot-1-light" d="M32.49,8.8c.28-.2.57.01.7.17.2.23.07.5-.09.65-.25.24-.49.15-.61.04-.26-.22-.33-.62,0-.85Z" fill="#8965ab"/>
      <path id="paint-dot-7-dark" d="M48.81,2.57c.4-.29.79-.02.96.23.23.35.13.82-.2,1.03-.31.2-.72.13-.96-.2-.18-.24-.22-.76.21-1.06Z" fill="#178a44"/>
      <path id="paint-dot-6-dark" d="M33.23,2.78c-.48.13-.75-.32-.79-.58-.07-.39.12-.78.57-.84.37-.05.58.29.67.51.12.32.04.78-.45.9Z" fill="#178a44"/>
      <path id="paint-dot-5-dark" d="M70.36,13c.25.14.55.23.66.57-.02.35-.25.5-.46.54-.4.07-.67-.17-.73-.47-.07-.36.19-.65.54-.64Z" fill="#178a44"/>
      <path id="paint-dot-4-dark" d="M79.68,35.03c-.42.55-1.05.33-1.32-.11-.3-.5-.15-1.11.49-1.36.38-.15.77.05.93.3.2.32.19.8-.1,1.18Z" fill="#178a44"/>
      <path id="paint-dot-3-dark" d="M8.07,20.73c.35-.25.74-.14,1,.21.17.23.15.71-.1.96-.3.3-.8.14-1-.07-.3-.32-.26-.84.1-1.1Z" fill="#178a44"/>
      <path id="paint-dot-2-dark" d="M15.89,11.38c.33-.03.57.27.57.55s-.16.57-.52.65c-.25.05-.5-.15-.58-.49-.06-.28.09-.67.53-.71Z" fill="#178a44"/>
      <path id="paint-dot-1-dark" d="M44.31,13.17c.26-.31.7-.23.88.1.1.18.15.46-.06.73-.14.18-.56.23-.8,0-.16-.14-.29-.5-.01-.83Z" fill="#178a44"/>
    </g>
  </g>
</svg>