<svg xmlns="http://www.w3.org/2000/svg" viewBox="0 0 222 222">
  <g transform="translate(7.77 43.23) scale(2.0698)">
<defs>
    <clipPath id="clippath">
      <rect width="99.75" height="65.49" fill="none"/>
    </clipPath>
  </defs>
  <g clip-path="url(#clippath)">
    <path d="M49.61,0C22.72,0,0,15.07,0,32.91s21.33,32.57,49.61,32.57c16.51,0,32.15-5.8,41.86-15.52,5.34-5.35,8.28-11.4,8.28-17.06,0-8.8-5.18-17.06-14.57-23.26C75.77,3.42,63.14,0,49.61,0h0Z" fill="#ffae05"/>
  </g>
  <path d="M14.92,54.73C6.29,48.97,1.54,41.22,1.54,32.91,1.54,16.2,24,1.54,49.61,1.54c26.79,0,48.59,14.07,48.6,31.38,0,5.24-2.78,10.91-7.83,15.97-9.43,9.43-24.67,15.07-40.78,15.07-13.46,0-25.78-3.28-34.69-9.22h0Z" fill="#161f1b"/>
  <path d="M71.13,24.29c-3.86-5.75-12.32-9.74-22.28-9.74-13.67,0-24.75,7.52-24.75,16.79s7.82,17.41,24.75,17.4c10.16,0,18.34-4.39,22.16-10.16l-28.87.05-.09-7.5,50.12-.02c.07.6.14,1.19.14,1.8,0,14.44-19.11,26.14-42.69,26.14S6.92,47.35,6.92,32.91,27.17,6.33,49.61,6.24c18.68-.07,34.56,7.65,40.35,18.03h-18.83s0,.01,0,.01Z" fill="#fff"/>
  </g>
</svg>
